<svg width="216" height="216" viewBox="0 0 216 216" fill="none" xmlns="http://www.w3.org/2000/svg">
<path d="M108.577 8.77819C96.2882 21.0672 112.851 37.6305 100.563 49.9186L108.342 42.1404C120.63 29.8523 104.066 13.289 116.355 1L108.577 8.77819Z" fill="#FFF388"/>
<path d="M8.77819 108.341C21.0672 120.631 37.6305 104.067 49.9186 116.355L42.1404 108.577C29.8523 96.2891 13.289 112.852 1 100.563L8.77819 108.341Z" fill="#FFF388"/>
<path d="M37.9925 37.9556C38.0085 55.3349 61.4325 55.3133 61.4485 72.6913L61.4384 61.6913C61.4224 44.3133 37.9984 44.3349 37.9824 26.9556L37.9925 37.9556Z" fill="#FFF388"/>
<path d="M178.963 37.9925C161.584 38.0085 161.605 61.4324 144.227 61.4484L155.227 61.4383C172.605 61.4223 172.584 37.9983 189.963 37.9823L178.963 37.9925Z" fill="#FFF388"/>
<path d="M108.577 174.778C96.2881 187.067 112.851 203.631 100.563 215.919L108.341 208.14C120.63 195.852 104.066 179.289 116.355 167L108.577 174.778Z" fill="#FFF388"/>
<path d="M174.778 108.341C187.067 120.63 203.63 104.067 215.919 116.355L208.14 108.577C195.852 96.2891 179.289 112.852 167 100.563L174.778 108.341Z" fill="#FFF388"/>
<path d="M155.48 155.227C155.496 172.607 178.92 172.585 178.936 189.963L178.926 178.963C178.91 161.585 155.486 161.607 155.47 144.227L155.48 155.227Z" fill="#FFF388"/>
<path d="M61.6914 155.48C44.3121 155.496 44.3336 178.92 26.9556 178.936L37.9556 178.926C55.3336 178.91 55.3121 155.486 72.6914 155.47L61.6914 155.48Z" fill="#FFF388"/>
<path d="M148.542 84.5881C146.489 81.0631 143.985 77.8097 141.088 74.9124C136.677 70.5016 131.441 67.0028 125.678 64.6157C120.259 62.3713 114.475 61.151 108.618 61.0132C83.9752 64.6745 64.4538 86.1279 65.7374 111.249C66.9898 135.759 90.3956 152.529 113.652 151.263C134.176 150.145 151.776 132.746 150.239 111.935C148.836 92.9514 131.591 83.0619 114.398 83.0619C100.294 84.2104 87.9248 96.3687 89.5789 110.908C90.2476 116.786 93.579 121.72 98.1709 124.991C102.662 128.191 107.797 129.422 113.217 128.692C120.859 127.662 128.166 120.798 126.47 112.652C125.871 109.777 124.06 107.636 121.799 106.361C119.529 105.08 116.553 104.665 114.229 106.036C116.917 106.169 119.17 108.26 119.428 111.018C119.665 113.552 118.526 115.638 117.077 116.942C115.697 118.184 114.009 118.797 112.448 118.974C109.242 119.337 105.748 117.977 103.527 114.758C100.905 111.294 101.153 106.74 102.594 103.367C104.173 99.671 107.461 96.4298 112.252 94.9916C117.136 93.2893 122.728 94.2552 127.203 96.7794C131.824 99.3858 135.841 103.962 137.202 110.239C140.529 122.759 130.395 137.392 114.835 139.573C106.901 141.041 98.4403 138.689 91.7882 133.95C85.0735 129.166 79.7833 121.654 78.669 112.319C75.527 93.8797 91.3999 74.0129 113.358 72.1424C125.859 70.4963 139.135 75.438 148.542 84.5881Z" fill="#FFF388"/>
</svg>
