<svg width="217" height="217" viewBox="0 0 217 217" fill="none" xmlns="http://www.w3.org/2000/svg">
<mask id="path-1-outside-1_109_3" maskUnits="userSpaceOnUse" x="0" y="0" width="217" height="217" fill="black">
<rect fill="white" width="217" height="217"/>
<path d="M108.577 8.77819C96.2882 21.0672 112.851 37.6305 100.563 49.9186L108.342 42.1404C120.63 29.8523 104.066 13.289 116.355 1L108.577 8.77819Z"/>
<path d="M8.77819 108.341C21.0672 120.631 37.6305 104.067 49.9186 116.355L42.1404 108.577C29.8523 96.2891 13.289 112.852 1 100.563L8.77819 108.341Z"/>
<path d="M37.9925 37.9556C38.0085 55.3349 61.4325 55.3133 61.4485 72.6913L61.4384 61.6913C61.4224 44.3133 37.9984 44.3349 37.9824 26.9556L37.9925 37.9556Z"/>
<path d="M178.963 37.9925C161.584 38.0085 161.605 61.4324 144.227 61.4484L155.227 61.4383C172.605 61.4223 172.584 37.9983 189.963 37.9823L178.963 37.9925Z"/>
<path d="M108.577 174.778C96.2881 187.067 112.851 203.631 100.563 215.919L108.341 208.14C120.63 195.852 104.066 179.289 116.355 167L108.577 174.778Z"/>
<path d="M174.778 108.341C187.067 120.63 203.63 104.067 215.919 116.355L208.14 108.577C195.852 96.2891 179.289 112.852 167 100.563L174.778 108.341Z"/>
<path d="M155.48 155.227C155.496 172.607 178.92 172.585 178.936 189.963L178.926 178.963C178.91 161.585 155.486 161.607 155.47 144.227L155.48 155.227Z"/>
<path d="M61.6914 155.48C44.3121 155.496 44.3336 178.92 26.9556 178.936L37.9556 178.926C55.3336 178.91 55.3121 155.486 72.6914 155.47L61.6914 155.48Z"/>
<path d="M148.542 84.5881C146.489 81.0631 143.985 77.8097 141.088 74.9124C136.677 70.5016 131.441 67.0028 125.678 64.6157C120.259 62.3713 114.475 61.151 108.618 61.0132C83.9752 64.6745 64.4538 86.1279 65.7374 111.249C66.9898 135.759 90.3956 152.529 113.652 151.263C134.176 150.145 151.776 132.746 150.239 111.935C148.836 92.9514 131.591 83.0619 114.398 83.0619C100.294 84.2104 87.9248 96.3687 89.5789 110.908C90.2476 116.786 93.579 121.72 98.1709 124.991C102.662 128.191 107.797 129.422 113.217 128.692C120.859 127.662 128.166 120.798 126.47 112.652C125.871 109.777 124.06 107.636 121.799 106.361C119.529 105.08 116.553 104.665 114.229 106.036C116.917 106.169 119.17 108.26 119.428 111.018C119.665 113.552 118.526 115.638 117.077 116.942C115.697 118.184 114.009 118.797 112.448 118.974C109.242 119.337 105.748 117.977 103.527 114.758C100.905 111.294 101.153 106.74 102.594 103.367C104.173 99.671 107.461 96.4298 112.252 94.9916C117.136 93.2893 122.728 94.2552 127.203 96.7794C131.824 99.3858 135.841 103.962 137.202 110.239C140.529 122.759 130.395 137.392 114.835 139.573C106.901 141.041 98.4403 138.689 91.7882 133.95C85.0735 129.166 79.7833 121.654 78.669 112.319C75.527 93.8797 91.3999 74.0129 113.358 72.1424C125.859 70.4963 139.135 75.438 148.542 84.5881Z"/>
</mask>
<path d="M108.577 8.77819C96.2882 21.0672 112.851 37.6305 100.563 49.9186L108.342 42.1404C120.63 29.8523 104.066 13.289 116.355 1L108.577 8.77819Z" fill="#FFE661"/>
<path d="M8.77819 108.341C21.0672 120.631 37.6305 104.067 49.9186 116.355L42.1404 108.577C29.8523 96.2891 13.289 112.852 1 100.563L8.77819 108.341Z" fill="#FFE661"/>
<path d="M37.9925 37.9556C38.0085 55.3349 61.4325 55.3133 61.4485 72.6913L61.4384 61.6913C61.4224 44.3133 37.9984 44.3349 37.9824 26.9556L37.9925 37.9556Z" fill="#FFE661"/>
<path d="M178.963 37.9925C161.584 38.0085 161.605 61.4324 144.227 61.4484L155.227 61.4383C172.605 61.4223 172.584 37.9983 189.963 37.9823L178.963 37.9925Z" fill="#FFE661"/>
<path d="M108.577 174.778C96.2881 187.067 112.851 203.631 100.563 215.919L108.341 208.14C120.63 195.852 104.066 179.289 116.355 167L108.577 174.778Z" fill="#FFE661"/>
<path d="M174.778 108.341C187.067 120.63 203.63 104.067 215.919 116.355L208.14 108.577C195.852 96.2891 179.289 112.852 167 100.563L174.778 108.341Z" fill="#FFE661"/>
<path d="M155.48 155.227C155.496 172.607 178.92 172.585 178.936 189.963L178.926 178.963C178.91 161.585 155.486 161.607 155.47 144.227L155.48 155.227Z" fill="#FFE661"/>
<path d="M61.6914 155.48C44.3121 155.496 44.3336 178.92 26.9556 178.936L37.9556 178.926C55.3336 178.91 55.3121 155.486 72.6914 155.47L61.6914 155.48Z" fill="#FFE661"/>
<path d="M148.542 84.5881C146.489 81.0631 143.985 77.8097 141.088 74.9124C136.677 70.5016 131.441 67.0028 125.678 64.6157C120.259 62.3713 114.475 61.151 108.618 61.0132C83.9752 64.6745 64.4538 86.1279 65.7374 111.249C66.9898 135.759 90.3956 152.529 113.652 151.263C134.176 150.145 151.776 132.746 150.239 111.935C148.836 92.9514 131.591 83.0619 114.398 83.0619C100.294 84.2104 87.9248 96.3687 89.5789 110.908C90.2476 116.786 93.579 121.72 98.1709 124.991C102.662 128.191 107.797 129.422 113.217 128.692C120.859 127.662 128.166 120.798 126.47 112.652C125.871 109.777 124.06 107.636 121.799 106.361C119.529 105.08 116.553 104.665 114.229 106.036C116.917 106.169 119.17 108.26 119.428 111.018C119.665 113.552 118.526 115.638 117.077 116.942C115.697 118.184 114.009 118.797 112.448 118.974C109.242 119.337 105.748 117.977 103.527 114.758C100.905 111.294 101.153 106.74 102.594 103.367C104.173 99.671 107.461 96.4298 112.252 94.9916C117.136 93.2893 122.728 94.2552 127.203 96.7794C131.824 99.3858 135.841 103.962 137.202 110.239C140.529 122.759 130.395 137.392 114.835 139.573C106.901 141.041 98.4403 138.689 91.7882 133.95C85.0735 129.166 79.7833 121.654 78.669 112.319C75.527 93.8797 91.3999 74.0129 113.358 72.1424C125.859 70.4963 139.135 75.438 148.542 84.5881Z" fill="#FFE661"/>
<path d="M99.8563 49.2115C99.4657 49.602 99.4657 50.2352 99.8563 50.6257C100.247 51.0162 100.88 51.0162 101.27 50.6257L99.8563 49.2115ZM108.577 8.77819L109.284 9.48529L109.284 9.48529L108.577 8.77819ZM108.342 42.1404L107.634 41.4333L107.634 41.4333L108.342 42.1404ZM117.063 1.70711C117.453 1.31658 117.453 0.683417 117.063 0.292893C116.672 -0.0976311 116.039 -0.097631 115.648 0.292893L117.063 1.70711ZM49.2115 117.062C49.602 117.453 50.2352 117.453 50.6257 117.062C51.0162 116.672 51.0162 116.039 50.6257 115.648L49.2115 117.062ZM8.77819 108.341L9.48529 107.634L9.48529 107.634L8.77819 108.341ZM42.1404 108.577L42.8475 107.87L42.8475 107.87L42.1404 108.577ZM1.70711 99.8562C1.31658 99.4657 0.683417 99.4657 0.292893 99.8562C-0.0976311 100.247 -0.097631 100.88 0.292893 101.27L1.70711 99.8562ZM60.4485 72.6923C60.449 73.2445 60.8971 73.6918 61.4494 73.6913C62.0017 73.6908 62.449 73.2427 62.4485 72.6904L60.4485 72.6923ZM37.9925 37.9556L36.9925 37.9565L36.9925 37.9565L37.9925 37.9556ZM61.4384 61.6913L62.4384 61.6904L62.4384 61.6904L61.4384 61.6913ZM38.9824 26.9547C38.9819 26.4024 38.5338 25.9551 37.9815 25.9556C37.4292 25.9561 36.9819 26.4042 36.9824 26.9565L38.9824 26.9547ZM144.226 60.4484C143.674 60.4489 143.227 60.8971 143.227 61.4494C143.228 62.0016 143.676 62.4489 144.228 62.4484L144.226 60.4484ZM178.963 37.9925L178.962 36.9925L178.962 36.9925L178.963 37.9925ZM155.227 61.4383L155.226 60.4383L155.226 60.4383L155.227 61.4383ZM189.964 38.9823C190.516 38.9818 190.964 38.5337 190.963 37.9814C190.963 37.4291 190.514 36.9818 189.962 36.9823L189.964 38.9823ZM99.8562 215.212C99.4657 215.602 99.4657 216.235 99.8562 216.626C100.247 217.016 100.88 217.016 101.27 216.626L99.8562 215.212ZM108.577 174.778L107.87 174.071L107.87 174.071L108.577 174.778ZM117.062 167.707C117.453 167.317 117.453 166.683 117.062 166.293C116.672 165.902 116.039 165.902 115.648 166.293L117.062 167.707ZM215.211 117.062C215.602 117.453 216.235 117.453 216.626 117.062C217.016 116.672 217.016 116.039 216.626 115.648L215.211 117.062ZM174.778 108.341L174.071 109.049L174.071 109.049L174.778 108.341ZM208.14 108.577L208.848 107.87L208.848 107.87L208.14 108.577ZM167.707 99.8562C167.317 99.4657 166.683 99.4657 166.293 99.8562C165.902 100.247 165.902 100.88 166.293 101.27L167.707 99.8562ZM177.936 189.964C177.937 190.516 178.385 190.963 178.937 190.963C179.489 190.962 179.937 190.514 179.936 189.962L177.936 189.964ZM155.48 155.227L156.48 155.226L156.48 155.226L155.48 155.227ZM178.926 178.963L179.926 178.962L179.926 178.962L178.926 178.963ZM156.47 144.226C156.47 143.674 156.021 143.227 155.469 143.227C154.917 143.228 154.47 143.676 154.47 144.228L156.47 144.226ZM26.9547 177.936C26.4024 177.937 25.9551 178.385 25.9556 178.937C25.9561 179.489 26.4043 179.937 26.9565 179.936L26.9547 177.936ZM61.6914 155.48L61.6923 156.48L61.6923 156.48L61.6914 155.48ZM37.9556 178.926L37.9566 179.926L37.9566 179.926L37.9556 178.926ZM72.6923 156.47C73.2446 156.47 73.6919 156.021 73.6914 155.469C73.6909 154.917 73.2427 154.47 72.6905 154.47L72.6923 156.47ZM148.542 84.5881L147.845 85.3049C148.204 85.6535 148.764 85.6838 149.158 85.376C149.552 85.0681 149.658 84.5166 149.406 84.0847L148.542 84.5881ZM141.088 74.9124L140.381 75.6195L140.381 75.6195L141.088 74.9124ZM125.678 64.6157L125.295 65.5396L125.295 65.5396L125.678 64.6157ZM108.618 61.0132L108.642 60.0134C108.585 60.0121 108.528 60.0156 108.471 60.024L108.618 61.0132ZM65.7374 111.249L64.7387 111.3L64.7387 111.3L65.7374 111.249ZM113.652 151.263L113.598 150.264L113.598 150.264L113.652 151.263ZM150.239 111.935L151.236 111.862L151.236 111.862L150.239 111.935ZM114.398 83.0619V82.0619C114.371 82.0619 114.344 82.063 114.317 82.0652L114.398 83.0619ZM89.5789 110.908L90.5725 110.795L90.5725 110.795L89.5789 110.908ZM98.1709 124.991L97.5907 125.806L97.5907 125.806L98.1709 124.991ZM113.217 128.692L113.351 129.683L113.351 129.683L113.217 128.692ZM126.47 112.652L127.449 112.448L127.449 112.448L126.47 112.652ZM121.799 106.361L122.291 105.489L122.291 105.489L121.799 106.361ZM114.229 106.036L113.721 105.175C113.34 105.4 113.152 105.847 113.258 106.276C113.364 106.705 113.739 107.013 114.18 107.035L114.229 106.036ZM119.428 111.018L120.423 110.925L120.423 110.925L119.428 111.018ZM117.077 116.942L117.746 117.686L117.746 117.686L117.077 116.942ZM112.448 118.974L112.56 119.968L112.56 119.968L112.448 118.974ZM103.527 114.758L104.35 114.19C104.342 114.178 104.333 114.166 104.324 114.154L103.527 114.758ZM102.594 103.367L101.674 102.974L101.674 102.974L102.594 103.367ZM112.252 94.9916L112.539 95.9494C112.553 95.9452 112.567 95.9407 112.581 95.9359L112.252 94.9916ZM127.203 96.7794L127.695 95.9084L127.695 95.9084L127.203 96.7794ZM137.202 110.239L136.225 110.451C136.228 110.466 136.232 110.481 136.236 110.495L137.202 110.239ZM114.835 139.573L114.696 138.583C114.682 138.585 114.667 138.587 114.653 138.59L114.835 139.573ZM91.7882 133.95L92.3684 133.135L92.3684 133.135L91.7882 133.95ZM78.669 112.319L79.6619 112.201C79.6599 112.184 79.6575 112.168 79.6548 112.151L78.669 112.319ZM113.358 72.1424L113.443 73.1388C113.458 73.1375 113.474 73.1358 113.489 73.1338L113.358 72.1424ZM101.27 50.6257C107.815 44.0816 106.618 36.3482 105.559 29.2022C104.481 21.9223 103.54 15.2298 109.284 9.48529L107.87 8.07108C101.326 14.6156 102.522 22.3492 103.581 29.4953C104.659 36.7752 105.6 43.4675 99.8563 49.2115L101.27 50.6257ZM109.049 42.8475C115.593 36.3034 114.396 28.57 113.337 21.424C112.259 14.1442 111.318 7.45158 117.063 1.70711L115.648 0.292893C109.104 6.83744 110.3 14.571 111.359 21.7171C112.438 28.997 113.378 35.6893 107.634 41.4333L109.049 42.8475ZM109.284 9.48529L117.063 1.70711L115.648 0.292893L107.87 8.07108L109.284 9.48529ZM107.634 41.4333L99.8563 49.2115L101.27 50.6257L109.049 42.8475L107.634 41.4333ZM50.6257 115.648C44.0816 109.104 36.3482 110.301 29.2022 111.36C21.9223 112.438 15.2298 113.379 9.48529 107.634L8.07108 109.049C14.6156 115.593 22.3492 114.397 29.4953 113.338C36.7752 112.259 43.4675 111.318 49.2115 117.062L50.6257 115.648ZM42.8475 107.87C36.3034 101.326 28.57 102.523 21.424 103.581C14.1442 104.66 7.45158 105.601 1.70711 99.8562L0.292893 101.27C6.83744 107.815 14.571 106.619 21.7171 105.56C28.997 104.481 35.6893 103.54 41.4333 109.284L42.8475 107.87ZM9.48529 107.634L1.70711 99.8562L0.292893 101.27L8.07108 109.049L9.48529 107.634ZM41.4333 109.284L49.2115 117.062L50.6257 115.648L42.8475 107.87L41.4333 109.284ZM62.4485 72.6904C62.44 63.4357 56.1212 58.8193 50.3156 54.5203C44.4013 50.1408 39 46.0786 38.9925 37.9547L36.9925 37.9565C37.001 47.2119 43.3197 51.8286 49.1254 56.1276C55.0398 60.5071 60.441 64.569 60.4485 72.6923L62.4485 72.6904ZM62.4384 61.6904C62.4299 52.4356 56.1111 47.8193 50.3055 43.5203C44.3912 39.1408 38.9899 35.0786 38.9824 26.9547L36.9824 26.9565C36.9909 36.2119 43.3096 40.8285 49.1153 45.1276C55.0297 49.5071 60.4309 53.569 60.4384 61.6922L62.4384 61.6904ZM38.9925 37.9547L38.9824 26.9547L36.9824 26.9565L36.9925 37.9565L38.9925 37.9547ZM60.4384 61.6922L60.4485 72.6923L62.4485 72.6904L62.4384 61.6904L60.4384 61.6922ZM144.228 62.4484C153.483 62.4399 158.099 56.1212 162.398 50.3155C166.778 44.4012 170.84 38.9999 178.964 38.9925L178.962 36.9925C169.707 37.001 165.09 43.3197 160.791 49.1253C156.411 55.0397 152.35 60.441 144.226 60.4484L144.228 62.4484ZM155.228 62.4383C164.483 62.4298 169.099 56.111 173.398 50.3054C177.778 44.3911 181.84 38.9898 189.964 38.9823L189.962 36.9823C180.707 36.9909 176.09 43.3096 171.791 49.1152C167.411 55.0296 163.35 60.4308 155.226 60.4383L155.228 62.4383ZM178.964 38.9925L189.964 38.9823L189.962 36.9823L178.962 36.9925L178.964 38.9925ZM155.226 60.4383L144.226 60.4484L144.228 62.4484L155.228 62.4383L155.226 60.4383ZM101.27 216.626C107.814 210.082 106.618 202.348 105.559 195.202C104.48 187.922 103.54 181.23 109.284 175.485L107.87 174.071C101.326 180.616 102.522 188.349 103.581 195.495C104.659 202.775 105.6 209.468 99.8562 215.212L101.27 216.626ZM109.049 208.848C115.593 202.303 114.396 194.57 113.337 187.424C112.259 180.144 111.318 173.452 117.062 167.707L115.648 166.293C109.104 172.837 110.3 180.571 111.359 187.717C112.437 194.997 113.378 201.689 107.634 207.433L109.049 208.848ZM109.284 175.485L117.062 167.707L115.648 166.293L107.87 174.071L109.284 175.485ZM107.634 207.433L99.8562 215.212L101.27 216.626L109.049 208.848L107.634 207.433ZM216.626 115.648C210.082 109.104 202.348 110.301 195.202 111.36C187.922 112.438 181.23 113.379 175.485 107.634L174.071 109.049C180.616 115.593 188.349 114.397 195.495 113.338C202.775 112.259 209.467 111.318 215.211 117.062L216.626 115.648ZM208.848 107.87C202.303 101.326 194.57 102.523 187.424 103.581C180.144 104.66 173.452 105.601 167.707 99.8562L166.293 101.27C172.837 107.815 180.571 106.619 187.717 105.56C194.997 104.481 201.689 103.54 207.433 109.284L208.848 107.87ZM175.485 107.634L167.707 99.8562L166.293 101.27L174.071 109.049L175.485 107.634ZM207.433 109.284L215.211 117.062L216.626 115.648L208.848 107.87L207.433 109.284ZM179.936 189.962C179.928 180.707 173.609 176.091 167.803 171.792C161.889 167.412 156.488 163.35 156.48 155.226L154.48 155.228C154.489 164.484 160.807 169.1 166.613 173.399C172.527 177.779 177.929 181.841 177.936 189.964L179.936 189.962ZM179.926 178.962C179.918 169.707 173.599 165.091 167.793 160.792C161.879 156.412 156.478 152.35 156.47 144.226L154.47 144.228C154.479 153.484 160.797 158.1 166.603 162.399C172.517 166.779 177.919 170.841 177.926 178.964L179.926 178.962ZM156.48 155.226L156.47 144.226L154.47 144.228L154.48 155.228L156.48 155.226ZM177.926 178.964L177.936 189.964L179.936 189.962L179.926 178.962L177.926 178.964ZM26.9565 179.936C36.2113 179.928 40.8276 173.609 45.1267 167.803C49.5062 161.889 53.5684 156.488 61.6923 156.48L61.6904 154.48C52.4351 154.489 47.8184 160.807 43.5194 166.613C39.1398 172.528 35.0779 177.929 26.9547 177.936L26.9565 179.936ZM37.9566 179.926C47.2113 179.918 51.8277 173.599 56.1267 167.793C60.5062 161.879 64.5684 156.478 72.6923 156.47L72.6905 154.47C63.4351 154.479 58.8184 160.797 54.5194 166.603C50.1398 172.517 46.078 177.919 37.9547 177.926L37.9566 179.926ZM61.6923 156.48L72.6923 156.47L72.6905 154.47L61.6904 154.48L61.6923 156.48ZM37.9547 177.926L26.9547 177.936L26.9565 179.936L37.9566 179.926L37.9547 177.926ZM149.406 84.0847C147.31 80.4855 144.753 77.1636 141.795 74.2053L140.381 75.6195C143.217 78.4558 145.668 81.6408 147.678 85.0915L149.406 84.0847ZM141.795 74.2053C137.291 69.7017 131.945 66.1292 126.06 63.6918L125.295 65.5396C130.937 67.8764 136.063 71.3016 140.381 75.6195L141.795 74.2053ZM126.06 63.6918C120.528 61.4002 114.622 60.1542 108.642 60.0134L108.595 62.0129C114.328 62.1479 119.991 63.3425 125.295 65.5396L126.06 63.6918ZM88.5853 111.021C89.2905 117.22 92.8015 122.393 97.5907 125.806L98.7512 124.177C94.3565 121.046 91.2048 116.353 90.5725 110.795L88.5853 111.021ZM127.449 112.448C126.784 109.257 124.771 106.889 122.291 105.489L121.308 107.232C123.349 108.383 124.957 110.296 125.491 112.855L127.449 112.448ZM114.18 107.035C116.378 107.143 118.221 108.855 118.432 111.111L120.423 110.925C120.118 107.664 117.456 105.194 114.278 105.038L114.18 107.035ZM118.432 111.111C118.634 113.275 117.666 115.066 116.407 116.199L117.746 117.686C119.385 116.209 120.695 113.829 120.423 110.925L118.432 111.111ZM116.407 116.199C115.209 117.278 113.727 117.823 112.335 117.98L112.56 119.968C114.29 119.772 116.185 119.09 117.746 117.686L116.407 116.199ZM112.335 117.98C109.488 118.302 106.357 117.099 104.35 114.19L102.704 115.326C105.138 118.855 108.995 120.371 112.56 119.968L112.335 117.98ZM104.324 114.154C101.987 111.067 102.162 106.922 103.514 103.759L101.674 102.974C100.144 106.557 99.822 111.521 102.73 115.362L104.324 114.154ZM103.514 103.759C104.977 100.334 108.035 97.3015 112.539 95.9494L111.964 94.0338C106.887 95.5581 103.369 99.0081 101.674 102.974L103.514 103.759ZM112.581 95.9359C117.135 94.3484 122.428 95.2341 126.712 97.6504L127.695 95.9084C123.028 93.2764 117.136 92.2302 111.923 94.0473L112.581 95.9359ZM126.712 97.6504C131.117 100.135 134.932 104.488 136.225 110.451L138.18 110.027C136.75 103.436 132.531 98.6365 127.695 95.9084L126.712 97.6504ZM136.236 110.495C139.383 122.34 129.765 136.471 114.696 138.583L114.974 140.563C131.024 138.314 141.675 123.178 138.169 109.982L136.236 110.495ZM114.653 138.59C107.027 140.001 98.8364 137.744 92.3684 133.135L91.2079 134.764C98.0443 139.635 106.776 142.082 115.017 140.556L114.653 138.59ZM92.3684 133.135C85.8488 128.49 80.7382 121.216 79.6619 112.201L77.676 112.438C78.8285 122.091 84.2982 129.841 91.2079 134.764L92.3684 133.135ZM79.6548 112.151C76.6245 94.3675 91.9853 74.9667 113.443 73.1388L113.273 71.146C90.8146 73.0592 74.4294 93.392 77.6832 112.487L79.6548 112.151ZM113.489 73.1338C125.652 71.5323 138.631 76.3426 147.845 85.3049L149.24 83.8712C139.64 74.5334 126.067 69.4603 113.228 71.1509L113.489 73.1338ZM122.291 105.489C119.823 104.098 116.45 103.564 113.721 105.175L114.737 106.898C116.655 105.766 119.234 106.062 121.308 107.232L122.291 105.489ZM151.236 111.862C149.78 92.1556 131.887 82.0619 114.398 82.0619V84.0619C131.295 84.0619 147.892 93.7471 149.242 112.009L151.236 111.862ZM113.707 152.261C134.71 151.117 152.821 133.307 151.236 111.862L149.242 112.009C150.732 132.184 133.643 149.173 113.598 150.264L113.707 152.261ZM64.7387 111.3C66.025 136.474 90.0142 153.551 113.707 152.261L113.598 150.264C90.777 151.507 67.9546 135.045 66.736 111.198L64.7387 111.3ZM108.471 60.024C83.3734 63.753 63.4261 85.6113 64.7387 111.3L66.736 111.198C65.4815 86.6444 84.5771 65.5961 108.765 62.0023L108.471 60.024ZM114.317 82.0652C99.7689 83.2498 86.8545 95.8083 88.5853 111.021L90.5725 110.795C88.995 96.9292 100.818 85.171 114.479 84.0586L114.317 82.0652ZM97.5907 125.806C102.292 129.155 107.683 130.446 113.351 129.683L113.084 127.701C107.912 128.398 103.032 127.227 98.7512 124.177L97.5907 125.806ZM113.351 129.683C117.406 129.137 121.36 127.049 124.089 124.008C126.83 120.956 128.374 116.889 127.449 112.448L125.491 112.855C126.262 116.56 125.001 119.999 122.601 122.672C120.19 125.358 116.67 127.218 113.084 127.701L113.351 129.683Z" fill="#A3935D" mask="url(#path-1-outside-1_109_3)"/>
</svg>
