<svg width="100" height="100" viewBox="0 0 100 100" fill="none" xmlns="http://www.w3.org/2000/svg">
<rect width="100" height="100" rx="24" fill="url(#paint0_linear_509_89)"/>
<rect x="0.5" y="0.5" width="99" height="99" rx="23.5" stroke="white" stroke-opacity="0.21"/>
<path d="M30.9302 63.3539V30.6154L26.1337 30.6154C21.5581 30.6154 17.8488 33.5083 17.8488 37.0769C17.8488 38.8494 18.7639 40.4552 20.2457 41.6226C20.4092 41.7514 20.6135 41.8134 20.8213 41.8272C23.545 42.008 25.6977 44.248 25.6977 46.9846C25.6977 49.8395 23.355 52.1539 20.4651 52.1539C14.6854 52.1539 10 46.368 10 39.2308C10 29.7145 17.809 22 27.4419 22H44.1877C44.606 22 44.9801 22.2604 45.1254 22.6527L57.0317 54.8025C57.3534 55.6714 58.5817 55.6733 58.9061 54.8053L70.9244 22.6499C71.0704 22.2591 71.4438 22 71.8611 22H84C84.5523 22 85 22.4477 85 23V77C85 77.5523 84.5523 78 84 78H75.5349C74.9826 78 74.5349 77.5523 74.5349 77V46.1929C74.5349 45.079 72.9882 44.7994 72.5982 45.8428L60.8222 77.3501C60.6761 77.7409 60.3027 78 59.8855 78H56.0448C55.6275 78 55.2541 77.7409 55.108 77.3501L43.3321 45.8428C42.9421 44.7994 41.3953 45.079 41.3953 46.1929V63.3539C41.3953 71.4427 34.7577 78 26.5698 78C18.3818 78 11.7442 71.4427 11.7442 63.3539V62.9231C11.7442 57.927 15.6487 53.8769 20.4651 53.8769C24.3183 53.8769 27.4419 56.7699 27.4419 60.3385C27.4419 63.0825 24.9831 65.3655 21.7375 65.8456C21.0953 65.9406 20.6226 66.558 20.9827 67.0982C21.8895 68.4586 23.6949 69.3846 25.6977 69.3846C28.5875 69.3846 30.9302 67.456 30.9302 65.0769V63.3539Z" fill="white"/>
<path d="M20.5551 41.2298L20.2457 41.6226L20.5551 41.2298C19.1681 40.1371 18.3488 38.6663 18.3488 37.0769C18.3488 33.893 21.7114 31.1154 26.1337 31.1154L30.4302 31.1154V63.3539V65.0769C30.4302 67.0933 28.4068 68.8846 25.6977 68.8846C23.8359 68.8846 22.1992 68.0217 21.3987 66.8209C21.3635 66.768 21.3575 66.7291 21.3582 66.7016C21.3591 66.6709 21.3696 66.629 21.4022 66.5793C21.4715 66.4738 21.6196 66.3684 21.8106 66.3402C25.2125 65.837 27.9419 63.4107 27.9419 60.3385C27.9419 56.4583 24.5576 53.3769 20.4651 53.3769C15.3554 53.3769 11.2442 57.6683 11.2442 62.9231V63.3539C11.2442 71.7246 18.1114 78.5 26.5698 78.5C35.0281 78.5 41.8953 71.7246 41.8953 63.3539V46.1929C41.8953 45.636 42.6687 45.4962 42.8637 46.0179L54.6397 77.5252C54.8588 78.1114 55.4189 78.5 56.0448 78.5H59.8855C60.5113 78.5 61.0714 78.1114 61.2905 77.5252L73.0665 46.0179C73.2615 45.4962 74.0349 45.636 74.0349 46.1929V77C74.0349 77.8284 74.7065 78.5 75.5349 78.5H84C84.8284 78.5 85.5 77.8284 85.5 77V23C85.5 22.1716 84.8284 21.5 84 21.5H71.8611C71.2352 21.5 70.6751 21.8886 70.456 22.4749L58.4378 54.6303C58.2756 55.0643 57.6614 55.0633 57.5005 54.6289L45.5943 22.4791C45.3764 21.8906 44.8152 21.5 44.1877 21.5H27.4419C17.5386 21.5 9.5 29.4326 9.5 39.2308C9.5 46.5404 14.3159 52.6539 20.4651 52.6539C23.6254 52.6539 26.1977 50.1214 26.1977 46.9846C26.1977 43.9778 23.8339 41.5261 20.8544 41.3283C20.7197 41.3193 20.62 41.281 20.5551 41.2298Z" stroke="black" stroke-opacity="0.12"/>
<defs>
<linearGradient id="paint0_linear_509_89" x1="100" y1="0" x2="0" y2="100" gradientUnits="userSpaceOnUse">
<stop stop-color="#658FC0"/>
<stop offset="1" stop-color="#B35EDB"/>
</linearGradient>
</defs>
</svg>
