<svg width="71" height="71" viewBox="0 0 71 71" fill="none" xmlns="http://www.w3.org/2000/svg">
<path d="M35.5034 0C25.8621 0 24.6521 0.042157 20.8653 0.21448C17.086 0.387543 14.5063 0.985865 12.2491 1.86375C9.91421 2.77047 7.93359 3.9834 5.96036 5.95734C3.98566 7.93056 2.77273 9.91116 1.86302 12.2453C0.982915 14.5032 0.383847 17.0836 0.213742 20.8614C0.0443752 24.648 0 25.8587 0 35.5C0 45.1413 0.042897 46.3476 0.214482 50.1342C0.388287 53.9135 0.986614 56.4931 1.86377 58.7502C2.77125 61.0852 3.98418 63.0658 5.95814 65.039C7.93063 67.0137 9.91126 68.2296 12.2447 69.1363C14.5034 70.0142 17.0838 70.6125 20.8625 70.7856C24.6491 70.9578 25.8584 71 35.4989 71C45.1409 71 46.3472 70.9578 50.134 70.7856C53.9133 70.6125 56.4959 70.0142 58.7546 69.1363C61.0888 68.2296 63.0665 67.0137 65.0388 65.039C67.0135 63.0658 68.2266 61.0852 69.1363 58.7511C70.009 56.4931 70.6081 53.9126 70.7856 50.1349C70.9556 46.3483 71 45.1413 71 35.5C71 25.8587 70.9556 24.6489 70.7856 20.8621C70.6081 17.0829 70.009 14.5032 69.1363 12.246C68.2266 9.91116 67.0135 7.93056 65.0388 5.95734C63.0642 3.98266 61.0895 2.76975 58.7523 1.86375C56.4892 0.985865 53.908 0.387543 50.1287 0.21448C46.3421 0.042157 45.1365 0 35.4922 0H35.5034ZM32.3187 6.3974C33.2639 6.39591 34.3186 6.3974 35.5034 6.3974C44.9819 6.3974 46.1054 6.43141 49.8484 6.60153C53.3096 6.75979 55.1883 7.33815 56.4397 7.82406C58.0963 8.46749 59.2775 9.23666 60.5193 10.4792C61.7618 11.7217 62.5309 12.905 63.1758 14.5617C63.6618 15.8116 64.2408 17.6901 64.3984 21.1513C64.5685 24.8937 64.6056 26.0178 64.6056 35.4918C64.6056 44.9659 64.5685 46.09 64.3984 49.8324C64.2401 53.2937 63.6618 55.1721 63.1758 56.4221C62.5324 58.0787 61.7618 59.2584 60.5193 60.5002C59.2767 61.7427 58.0972 62.5118 56.4397 63.1552C55.1897 63.6433 53.3096 64.2202 49.8484 64.3785C46.1062 64.5486 44.9819 64.5857 35.5034 64.5857C26.024 64.5857 24.9006 64.5486 21.1582 64.3785C17.6969 64.2188 15.8184 63.6403 14.5663 63.1545C12.9096 62.5111 11.7262 61.742 10.4837 60.4995C9.24118 59.257 8.47202 58.0766 7.82709 56.4191C7.34119 55.1693 6.76208 53.2906 6.60454 49.8294C6.43445 46.0872 6.40042 44.9629 6.40042 35.483C6.40042 26.003 6.43445 24.8848 6.60454 21.1426C6.76282 17.6812 7.34119 15.8027 7.82709 14.5513C8.47053 12.8946 9.24118 11.7113 10.4837 10.4688C11.7262 9.22631 12.9096 8.45713 14.5663 7.81222C15.8176 7.32409 17.6969 6.74722 21.1582 6.58821C24.4331 6.44029 25.7024 6.39591 32.3187 6.38853V6.3974ZM54.4531 12.2919C52.1012 12.2919 50.1931 14.1978 50.1931 16.5504C50.1931 18.9023 52.1012 20.8105 54.4531 20.8105C56.805 20.8105 58.7131 18.9023 58.7131 16.5504C58.7131 14.1985 56.805 12.2904 54.4531 12.2904V12.2919ZM35.5034 17.2693C25.4352 17.2693 17.2724 25.432 17.2724 35.5C17.2724 45.568 25.4352 53.7269 35.5034 53.7269C45.5714 53.7269 53.7312 45.568 53.7312 35.5C53.7312 25.432 45.5706 17.2693 35.5027 17.2693H35.5034ZM35.5034 23.6666C42.0384 23.6666 47.3368 28.9643 47.3368 35.5C47.3368 42.035 42.0384 47.3334 35.5034 47.3334C28.9676 47.3334 23.6698 42.035 23.6698 35.5C23.6698 28.9643 28.9676 23.6666 35.5034 23.6666Z" fill="#390803"/>
</svg>
