<svg width="870" height="134" viewBox="0 0 870 134" fill="none" xmlns="http://www.w3.org/2000/svg">
<g filter="url(#filter0_dddd_507_78)">
<path fill-rule="evenodd" clip-rule="evenodd" d="M232.609 106.164C232.057 106.164 231.609 105.717 231.609 105.164V28.0002C231.609 27.448 232.057 27.0002 232.609 27.0002L262.666 27.0002C270.975 27.0002 285.197 34.9167 285.197 48.9226C285.197 60.8594 277.818 67.0765 271.285 69.9522C270.683 70.2172 270.461 70.9712 270.849 71.5023L294.997 104.575C295.48 105.235 295.008 106.164 294.19 106.164H277.18C276.86 106.164 276.56 106.012 276.372 105.754L252.072 72.4732C251.883 72.2154 251.583 72.0629 251.264 72.0629H249.66C249.107 72.0629 248.66 72.5106 248.66 73.0629V105.164C248.66 105.717 248.212 106.164 247.66 106.164H232.609ZM248.66 36.7435V62.3196H255.967C263.275 62.3196 268.146 55.6211 268.146 48.9226C268.146 42.5238 262.666 36.7435 255.967 36.7435H248.66Z" fill="white"/>
<path d="M322.734 106.164C322.182 106.164 321.734 105.717 321.734 105.164V40.1793C321.734 39.6271 321.287 39.1793 320.734 39.1793H295.94C295.388 39.1793 294.94 38.7316 294.94 38.1793V28.0002C294.94 27.448 295.388 27.0002 295.94 27.0002H364.579C365.132 27.0002 365.579 27.448 365.579 28.0002V38.1793C365.579 38.7316 365.132 39.1793 364.579 39.1793H339.785C339.233 39.1793 338.785 39.6271 338.785 40.1793V105.164C338.785 105.717 338.337 106.164 337.785 106.164H322.734Z" fill="white"/>
<path d="M378.758 106.164C378.206 106.164 377.758 105.717 377.758 105.164V28.0002C377.758 27.448 378.206 27.0002 378.758 27.0002H393.658C394.21 27.0002 394.658 27.448 394.658 28.0002V61.3197C394.658 61.8719 395.106 62.3196 395.658 62.3196H427.458C428.01 62.3196 428.458 61.8719 428.458 61.3196V28.0002C428.458 27.448 428.906 27.0002 429.458 27.0002H444.961C445.514 27.0002 445.961 27.448 445.961 28.0002V105.164C445.961 105.717 445.514 106.164 444.961 106.164H428.854C428.302 106.164 427.854 105.717 427.854 105.164V73.0629C427.854 72.5107 427.407 72.0629 426.854 72.0629H395.658C395.106 72.0629 394.658 72.5106 394.658 73.0629V105.164C394.658 105.717 394.21 106.164 393.658 106.164H378.758Z" fill="white"/>
<path d="M56.2299 85.4597V39.1791L49.5313 39.1791C43.1413 39.1791 37.9612 43.2687 37.9612 48.3134C37.9612 50.8587 39.2799 53.1609 41.4072 54.8173C41.5731 54.9464 41.7788 55.0108 41.9887 55.0213C45.8508 55.2159 48.9224 58.409 48.9224 62.3194C48.9224 66.3552 45.6507 69.6269 41.6149 69.6269C33.5433 69.6269 27 61.4477 27 51.3582C27 37.9056 37.9055 27 51.3582 27H75.0174C75.4372 27 75.8123 27.2622 75.9565 27.6564L93.0503 74.3792C93.37 75.253 94.6052 75.2549 94.9275 74.382L112.181 27.6536C112.326 27.2608 112.7 27 113.119 27H130.74C131.293 27 131.74 27.4477 131.74 28V105.164C131.74 105.716 131.293 106.164 130.74 106.164H118.125C117.573 106.164 117.125 105.716 117.125 105.164V58.9755C117.125 57.8593 115.574 57.5821 115.187 58.6291L97.8772 105.511C97.7322 105.903 97.3578 106.164 96.9391 106.164H91.0311C90.6124 106.164 90.238 105.903 90.093 105.511L72.7829 58.6291C72.3963 57.5821 70.8448 57.8593 70.8448 58.9755V85.4597C70.8448 96.8945 61.5751 106.164 50.1403 106.164C38.7055 106.164 29.4358 96.8945 29.4358 85.4597V84.8507C29.4358 77.7881 34.8886 72.0627 41.6149 72.0627C46.996 72.0627 51.3582 76.1523 51.3582 81.197C51.3582 85.2191 47.6665 88.5406 42.886 89.0467C42.2416 89.1149 41.7649 89.7265 42.0685 90.299C43.2184 92.4672 45.9106 93.9851 48.9224 93.9851C52.9582 93.9851 56.2299 91.2587 56.2299 87.8955V85.4597Z" fill="white"/>
<path d="M607.943 85.4599V39.1793L601.245 39.1793C594.855 39.1793 589.675 43.2689 589.675 48.3137C589.675 50.859 590.993 53.1611 593.121 54.8175C593.286 54.9466 593.492 55.011 593.702 55.0216C597.564 55.2162 600.636 58.4092 600.636 62.3197C600.636 66.3555 597.364 69.6271 593.328 69.6271C585.257 69.6271 578.713 61.448 578.713 51.3585C578.713 37.9058 589.619 27.0002 603.072 27.0002H626.731C627.151 27.0002 627.526 27.2624 627.67 27.6567L644.764 74.3794C645.083 75.2533 646.319 75.2551 646.641 74.3822L663.894 27.6539C664.039 27.2611 664.414 27.0002 664.833 27.0002H682.454C683.006 27.0002 683.454 27.448 683.454 28.0002V105.164C683.454 105.717 683.006 106.164 682.454 106.164H669.839C669.286 106.164 668.839 105.717 668.839 105.164V58.9758C668.839 57.8596 667.287 57.5823 666.901 58.6294L649.591 105.511C649.446 105.904 649.071 106.164 648.652 106.164H642.744C642.326 106.164 641.951 105.904 641.806 105.511L624.496 58.6294C624.11 57.5823 622.558 57.8596 622.558 58.9758V85.4599C622.558 96.8947 613.288 106.164 601.854 106.164C590.419 106.164 581.149 96.8947 581.149 85.4599V84.851C581.149 77.7883 586.602 72.0629 593.328 72.0629C598.709 72.0629 603.072 76.1525 603.072 81.1973C603.072 85.2194 599.38 88.5409 594.599 89.0469C593.955 89.1151 593.478 89.7268 593.782 90.2993C594.932 92.4674 597.624 93.9853 600.636 93.9853C604.672 93.9853 607.943 91.2589 607.943 87.8958V85.4599Z" fill="white"/>
<path d="M793.066 106.164V72.0629L760.182 27.0002H777.233L801.591 62.3196L825.949 27.0002H843L810.116 72.0629V106.164H801.591H793.066Z" fill="white"/>
<path fill-rule="evenodd" clip-rule="evenodd" d="M695.633 106.164L724.863 27.0002H733.388H741.913L771.143 106.164H754.093L746.891 86.6779H719.885L712.684 106.164H695.633ZM733.388 47.7047L722.652 76.9346H744.124L733.388 47.7047Z" fill="white"/>
<path fill-rule="evenodd" clip-rule="evenodd" d="M458.141 106.164L487.37 27.0002H495.896H504.421L533.651 106.164H516.6L509.399 86.6779H482.393L475.191 106.164H458.141ZM495.896 47.7047L485.16 76.9346H506.632L495.896 47.7047Z" fill="white"/>
<path fill-rule="evenodd" clip-rule="evenodd" d="M143.919 106.164L173.149 27.0002H181.675H190.2L219.43 106.164H202.379L195.178 86.6779H168.172L160.97 106.164H143.919ZM181.675 47.7047L170.939 76.9346H192.411L181.675 47.7047Z" fill="white"/>
</g>
<defs>
<filter id="filter0_dddd_507_78" x="0" y="0" width="870" height="133.164" filterUnits="userSpaceOnUse" color-interpolation-filters="sRGB">
<feFlood flood-opacity="0" result="BackgroundImageFix"/>
<feColorMatrix in="SourceAlpha" type="matrix" values="0 0 0 0 0 0 0 0 0 0 0 0 0 0 0 0 0 0 127 0" result="hardAlpha"/>
<feOffset dy="4"/>
<feGaussianBlur stdDeviation="2"/>
<feComposite in2="hardAlpha" operator="out"/>
<feColorMatrix type="matrix" values="0 0 0 0 0 0 0 0 0 0 0 0 0 0 0 0 0 0 0.25 0"/>
<feBlend mode="normal" in2="BackgroundImageFix" result="effect1_dropShadow_507_78"/>
<feColorMatrix in="SourceAlpha" type="matrix" values="0 0 0 0 0 0 0 0 0 0 0 0 0 0 0 0 0 0 127 0" result="hardAlpha"/>
<feOffset/>
<feGaussianBlur stdDeviation="10.5"/>
<feComposite in2="hardAlpha" operator="out"/>
<feColorMatrix type="matrix" values="0 0 0 0 0 0 0 0 0 0 0 0 0 0 0 0 0 0 0.17 0"/>
<feBlend mode="normal" in2="effect1_dropShadow_507_78" result="effect2_dropShadow_507_78"/>
<feColorMatrix in="SourceAlpha" type="matrix" values="0 0 0 0 0 0 0 0 0 0 0 0 0 0 0 0 0 0 127 0" result="hardAlpha"/>
<feOffset/>
<feGaussianBlur stdDeviation="13.5"/>
<feComposite in2="hardAlpha" operator="out"/>
<feColorMatrix type="matrix" values="0 0 0 0 0.241667 0 0 0 0 0.241667 0 0 0 0 0.241667 0 0 0 0.19 0"/>
<feBlend mode="normal" in2="effect2_dropShadow_507_78" result="effect3_dropShadow_507_78"/>
<feColorMatrix in="SourceAlpha" type="matrix" values="0 0 0 0 0 0 0 0 0 0 0 0 0 0 0 0 0 0 127 0" result="hardAlpha"/>
<feOffset/>
<feGaussianBlur stdDeviation="2.5"/>
<feComposite in2="hardAlpha" operator="out"/>
<feColorMatrix type="matrix" values="0 0 0 0 0 0 0 0 0 0 0 0 0 0 0 0 0 0 0.19 0"/>
<feBlend mode="normal" in2="effect3_dropShadow_507_78" result="effect4_dropShadow_507_78"/>
<feBlend mode="normal" in="SourceGraphic" in2="effect4_dropShadow_507_78" result="shape"/>
</filter>
</defs>
</svg>
