<svg width="323" height="105" viewBox="0 0 323 105" fill="none" xmlns="http://www.w3.org/2000/svg">
<path fill-rule="evenodd" clip-rule="evenodd" d="M115.888 45C115.509 45 115.202 44.6901 115.202 44.3077V0.692308C115.202 0.309957 115.509 0 115.888 0H132.688C137.367 0 145.374 4.5 145.374 12.4615C145.374 19.1573 141.328 22.6871 137.687 24.3499C137.275 24.5375 137.124 25.0594 137.39 25.4271L150.749 43.8994C151.08 44.3569 150.757 45 150.196 45H140.922C140.703 45 140.498 44.8944 140.368 44.7159L126.76 25.8994C126.631 25.721 126.425 25.6154 126.206 25.6154H125.488C125.109 25.6154 124.802 25.9253 124.802 26.3077V44.3077C124.802 44.6901 124.495 45 124.116 45H115.888ZM124.802 5.53846V20.0769H128.916C133.031 20.0769 135.774 16.2692 135.774 12.4615C135.774 8.82415 132.688 5.53846 128.916 5.53846H124.802Z" fill="white"/>
<path d="M166.631 45C166.253 45 165.946 44.6901 165.946 44.3077V7.61539C165.946 7.23302 165.638 6.92308 165.26 6.92308H151.545C151.167 6.92308 150.86 6.61312 150.86 6.23077V0.692308C150.86 0.309957 151.167 0 151.545 0H189.946C190.325 0 190.632 0.309957 190.632 0.692308V6.23077C190.632 6.61312 190.325 6.92308 189.946 6.92308H176.232C175.853 6.92308 175.546 7.23302 175.546 7.61539V44.3077C175.546 44.6901 175.239 45 174.86 45H166.631Z" fill="white"/>
<path d="M198.175 45C197.796 45 197.489 44.6901 197.489 44.3077V0.692308C197.489 0.309957 197.796 0 198.175 0H206.318C206.697 0 207.004 0.309957 207.004 0.692308V19.3846C207.004 19.767 207.311 20.0769 207.69 20.0769H225.349C225.728 20.0769 226.034 19.767 226.034 19.3846V0.692308C226.034 0.309957 226.342 0 226.72 0H235.204C235.582 0 235.89 0.309957 235.89 0.692308V44.3077C235.89 44.6901 235.582 45 235.204 45H226.381C226.001 45 225.695 44.6901 225.695 44.3077V26.3077C225.695 25.9253 225.388 25.6154 225.009 25.6154H207.69C207.311 25.6154 207.004 25.9253 207.004 26.3077V44.3077C207.004 44.6901 206.697 45 206.318 45H198.175Z" fill="white"/>
<path d="M16.4574 6.92307L12.6859 6.92308C9.08813 6.92308 6.17153 9.24778 6.17153 12.1154C6.17153 13.5496 6.90107 14.848 8.08052 15.7877C8.19366 15.8778 8.33479 15.9219 8.47865 15.9306C10.6346 16.0611 12.3431 17.8676 12.3431 20.0769C12.3431 22.371 10.501 24.2308 8.2287 24.2308C3.68411 24.2308 0 19.5814 0 13.8462C0 6.19914 6.14019 0 13.7145 0H26.9497C27.2376 0 27.4948 0.181512 27.5937 0.454443L37.0739 26.6157C37.2931 27.2206 38.1401 27.2219 38.3611 26.6176L47.9302 0.45251C48.0297 0.180586 48.2864 0 48.5735 0H58.2867C58.6654 0 58.9724 0.309957 58.9724 0.692308V44.3077C58.9724 44.6901 58.6654 45 58.2867 45H51.4294C51.0507 45 50.7437 44.6901 50.7437 44.3077V18.8692C50.7437 18.0965 49.6798 17.9045 49.4147 18.6294L39.9359 44.5475C39.8365 44.8194 39.5797 45 39.2926 45H36.1372C35.8501 45 35.5933 44.8194 35.4939 44.5475L26.0151 18.6294C25.75 17.9045 24.6861 18.0965 24.6861 18.8692V33.2308C24.6861 39.7307 19.4669 45 13.0288 45C6.59062 45 1.37145 39.7307 1.37145 33.2308V32.8846C1.37145 28.8699 4.44155 25.6154 8.2287 25.6154C11.2584 25.6154 13.7145 27.9401 13.7145 30.8077C13.7145 33.0499 11.7153 34.9092 9.09923 35.2513C8.65852 35.309 8.333 35.7337 8.56073 36.119C9.2457 37.2777 10.711 38.0769 12.3431 38.0769C14.6153 38.0769 16.4574 36.5271 16.4574 34.6154V6.92307Z" fill="white"/>
<path d="M191.318 66.9231L187.546 66.9231C183.948 66.9231 181.032 69.2478 181.032 72.1154C181.032 73.5496 181.761 74.848 182.941 75.7877C183.054 75.8778 183.195 75.9219 183.339 75.9306C185.494 76.0611 187.203 77.8676 187.203 80.0769C187.203 82.371 185.361 84.2308 183.089 84.2308C178.544 84.2308 174.86 79.5814 174.86 73.8462C174.86 66.1991 181 60 188.575 60H201.81C202.098 60 202.355 60.1815 202.454 60.4544L211.934 86.6157C212.153 87.2206 213 87.2219 213.221 86.6176L222.79 60.4525C222.89 60.1806 223.147 60 223.433 60H233.147C233.525 60 233.832 60.31 233.832 60.6923V104.308C233.832 104.69 233.525 105 233.147 105H226.29C225.911 105 225.604 104.69 225.604 104.308V78.8692C225.604 78.0965 224.54 77.9045 224.275 78.6294L214.796 104.548C214.697 104.819 214.44 105 214.153 105H210.997C210.71 105 210.453 104.819 210.354 104.548L200.875 78.6294C200.61 77.9045 199.546 78.0965 199.546 78.8692V93.2308C199.546 99.7307 194.327 105 187.889 105C181.451 105 176.232 99.7307 176.232 93.2308V92.8846C176.232 88.8699 179.302 85.6154 183.089 85.6154C186.118 85.6154 188.575 87.9401 188.575 90.8077C188.575 93.0499 186.575 94.9092 183.959 95.2513C183.519 95.309 183.193 95.7337 183.421 96.119C184.106 97.2777 185.571 98.0769 187.203 98.0769C189.476 98.0769 191.318 96.5271 191.318 94.6154V66.9231Z" fill="white"/>
<path d="M296.233 105C295.855 105 295.548 104.69 295.548 104.308V85.8411C295.548 85.6944 295.502 85.5516 295.416 85.433L277.829 61.1004C277.498 60.6429 277.822 60 278.383 60H286.273C286.499 60 286.709 60.1119 286.838 60.2993L299.783 79.2505C300.056 79.6496 300.64 79.6496 300.912 79.2505L313.858 60.2993C313.986 60.1119 314.197 60 314.422 60H322.313C322.874 60 323.198 60.6429 322.867 61.1004L305.28 85.433C305.194 85.5516 305.148 85.6944 305.148 85.8411V104.308C305.148 104.69 304.841 105 304.462 105H296.233Z" fill="white"/>
<path fill-rule="evenodd" clip-rule="evenodd" d="M241.674 105C241.196 105 240.865 104.52 241.031 104.068L256.982 60.4525C257.081 60.1806 257.338 60 257.625 60H266.269C266.557 60 266.813 60.1806 266.913 60.4525L282.864 104.068C283.029 104.52 282.698 105 282.221 105H274.082C273.795 105 273.539 104.82 273.439 104.548L269.715 94.3754C269.616 94.1036 269.359 93.9231 269.072 93.9231H254.823C254.535 93.9231 254.279 94.1036 254.179 94.3754L250.455 104.548C250.356 104.82 250.099 105 249.812 105H241.674ZM262.591 73.5385C262.371 72.9337 261.523 72.9337 261.303 73.5385L256.241 87.4536C256.077 87.9055 256.408 88.3846 256.885 88.3846H267.01C267.486 88.3846 267.818 87.9055 267.653 87.4536L262.591 73.5385Z" fill="white"/>
<path fill-rule="evenodd" clip-rule="evenodd" d="M243.731 45C243.254 45 242.922 44.52 243.088 44.0679L259.039 0.452508C259.138 0.180582 259.395 0 259.682 0H268.326C268.614 0 268.87 0.180585 268.97 0.45251L284.921 44.0679C285.086 44.52 284.755 45 284.278 45H276.14C275.852 45 275.596 44.8195 275.496 44.5477L271.772 34.3754C271.673 34.1036 271.416 33.9231 271.129 33.9231H256.88C256.592 33.9231 256.336 34.1036 256.236 34.3754L252.512 44.5477C252.413 44.8195 252.156 45 251.869 45H243.731ZM264.648 13.5385C264.428 12.9337 263.581 12.9337 263.36 13.5385L258.298 27.4536C258.134 27.9055 258.465 28.3846 258.942 28.3846H269.067C269.544 28.3846 269.875 27.9055 269.71 27.4536L264.648 13.5385Z" fill="white"/>
<path fill-rule="evenodd" clip-rule="evenodd" d="M66.8138 45C66.3365 45 66.0052 44.52 66.1705 44.0679L82.1218 0.452508C82.2212 0.180582 82.4777 0 82.765 0H91.4092C91.6966 0 91.953 0.180585 92.0525 0.45251L108.004 44.0679C108.169 44.52 107.838 45 107.361 45H99.2224C98.9351 45 98.6786 44.8195 98.5792 44.5477L94.855 34.3754C94.7556 34.1036 94.4991 33.9231 94.2118 33.9231H79.9624C79.6751 33.9231 79.4187 34.1036 79.3192 34.3754L75.595 44.5477C75.4956 44.8195 75.2392 45 74.9518 45H66.8138ZM87.731 13.5385C87.5109 12.9337 86.6633 12.9337 86.4432 13.5385L81.3812 27.4536C81.2166 27.9055 81.5478 28.3846 82.0244 28.3846H92.1498C92.6264 28.3846 92.9576 27.9055 92.793 27.4536L87.731 13.5385Z" fill="white"/>
</svg>
