<svg width="844" height="120" viewBox="0 0 844 120" fill="none" xmlns="http://www.w3.org/2000/svg">
<path fill-rule="evenodd" clip-rule="evenodd" d="M219.609 99.1644C219.057 99.1644 218.609 98.7167 218.609 98.1644V21.0002C218.609 20.448 219.057 20.0002 219.609 20.0002L249.666 20.0002C257.975 20.0002 272.197 27.9167 272.197 41.9226C272.197 53.8594 264.818 60.0765 258.285 62.9522C257.683 63.2172 257.461 63.9712 257.849 64.5023L281.997 97.5747C282.48 98.2355 282.008 99.1644 281.19 99.1644H264.18C263.86 99.1644 263.56 99.012 263.372 98.7541L239.072 65.4732C238.883 65.2154 238.583 65.0629 238.264 65.0629H236.66C236.107 65.0629 235.66 65.5106 235.66 66.0629V98.1644C235.66 98.7167 235.212 99.1644 234.66 99.1644H219.609ZM235.66 29.7435V55.3196H242.967C250.275 55.3196 255.146 48.6211 255.146 41.9226C255.146 35.5238 249.666 29.7435 242.967 29.7435H235.66Z" fill="white"/>
<path d="M309.734 99.1644C309.182 99.1644 308.734 98.7167 308.734 98.1644V33.1793C308.734 32.6271 308.287 32.1793 307.734 32.1793H282.94C282.388 32.1793 281.94 31.7316 281.94 31.1793V21.0002C281.94 20.448 282.388 20.0002 282.94 20.0002H351.579C352.132 20.0002 352.579 20.448 352.579 21.0002V31.1793C352.579 31.7316 352.132 32.1793 351.579 32.1793H326.785C326.233 32.1793 325.785 32.6271 325.785 33.1793V98.1644C325.785 98.7167 325.337 99.1644 324.785 99.1644H309.734Z" fill="white"/>
<path d="M365.758 99.1644C365.206 99.1644 364.758 98.7167 364.758 98.1644V21.0002C364.758 20.448 365.206 20.0002 365.758 20.0002H380.658C381.21 20.0002 381.658 20.448 381.658 21.0002V54.3197C381.658 54.8719 382.106 55.3196 382.658 55.3196H414.458C415.01 55.3196 415.458 54.8719 415.458 54.3196V21.0002C415.458 20.448 415.906 20.0002 416.458 20.0002H431.961C432.514 20.0002 432.961 20.448 432.961 21.0002V98.1644C432.961 98.7167 432.514 99.1644 431.961 99.1644H415.854C415.302 99.1644 414.854 98.7167 414.854 98.1644V66.0629C414.854 65.5107 414.407 65.0629 413.854 65.0629H382.658C382.106 65.0629 381.658 65.5106 381.658 66.0629V98.1644C381.658 98.7167 381.21 99.1644 380.658 99.1644H365.758Z" fill="white"/>
<path d="M43.2299 78.4597V32.1791L36.5313 32.1791C30.1413 32.1791 24.9612 36.2687 24.9612 41.3134C24.9612 43.8587 26.2799 46.1609 28.4072 47.8173C28.5731 47.9464 28.7788 48.0108 28.9887 48.0213C32.8508 48.2159 35.9224 51.409 35.9224 55.3194C35.9224 59.3552 32.6507 62.6269 28.6149 62.6269C20.5433 62.6269 14 54.4477 14 44.3582C14 30.9056 24.9055 20 38.3582 20H62.0174C62.4372 20 62.8123 20.2622 62.9565 20.6564L80.0503 67.3792C80.37 68.253 81.6052 68.2549 81.9275 67.382L99.181 20.6536C99.3261 20.2608 99.7004 20 100.119 20H117.74C118.293 20 118.74 20.4477 118.74 21V98.1641C118.74 98.7164 118.293 99.1641 117.74 99.1641H105.125C104.573 99.1641 104.125 98.7164 104.125 98.1642V51.9755C104.125 50.8593 102.574 50.5821 102.187 51.6291L84.8772 98.5105C84.7322 98.9033 84.3578 99.1641 83.9391 99.1641H78.0311C77.6124 99.1641 77.238 98.9033 77.093 98.5105L59.7829 51.6291C59.3963 50.5821 57.8448 50.8593 57.8448 51.9755V78.4597C57.8448 89.8945 48.5751 99.1641 37.1403 99.1641C25.7055 99.1641 16.4358 89.8945 16.4358 78.4597V77.8507C16.4358 70.7881 21.8886 65.0627 28.6149 65.0627C33.996 65.0627 38.3582 69.1523 38.3582 74.197C38.3582 78.2191 34.6665 81.5406 29.886 82.0467C29.2416 82.1149 28.7649 82.7265 29.0685 83.299C30.2184 85.4672 32.9106 86.9851 35.9224 86.9851C39.9582 86.9851 43.2299 84.2587 43.2299 80.8955V78.4597Z" fill="white"/>
<path d="M594.943 78.4599V32.1793L588.245 32.1793C581.855 32.1793 576.675 36.2689 576.675 41.3137C576.675 43.859 577.993 46.1611 580.121 47.8175C580.286 47.9466 580.492 48.011 580.702 48.0216C584.564 48.2162 587.636 51.4092 587.636 55.3197C587.636 59.3555 584.364 62.6271 580.328 62.6271C572.257 62.6271 565.713 54.448 565.713 44.3585C565.713 30.9058 576.619 20.0002 590.072 20.0002H613.731C614.151 20.0002 614.526 20.2624 614.67 20.6567L631.764 67.3794C632.083 68.2533 633.319 68.2551 633.641 67.3822L650.894 20.6539C651.039 20.2611 651.414 20.0002 651.833 20.0002H669.454C670.006 20.0002 670.454 20.448 670.454 21.0002V98.1644C670.454 98.7167 670.006 99.1644 669.454 99.1644H656.839C656.286 99.1644 655.839 98.7167 655.839 98.1644V51.9758C655.839 50.8596 654.287 50.5823 653.901 51.6294L636.591 98.5108C636.446 98.9035 636.071 99.1644 635.652 99.1644H629.744C629.326 99.1644 628.951 98.9035 628.806 98.5108L611.496 51.6294C611.11 50.5823 609.558 50.8596 609.558 51.9758V78.4599C609.558 89.8947 600.288 99.1644 588.854 99.1644C577.419 99.1644 568.149 89.8947 568.149 78.4599V77.851C568.149 70.7883 573.602 65.0629 580.328 65.0629C585.709 65.0629 590.072 69.1525 590.072 74.1973C590.072 78.2194 586.38 81.5409 581.599 82.0469C580.955 82.1151 580.478 82.7268 580.782 83.2993C581.932 85.4674 584.624 86.9853 587.636 86.9853C591.672 86.9853 594.943 84.2589 594.943 80.8958V78.4599Z" fill="white"/>
<path d="M780.066 99.1644V65.0629L747.182 20.0002H764.233L788.591 55.3196L812.949 20.0002H830L797.116 65.0629V99.1644H788.591H780.066Z" fill="white"/>
<path fill-rule="evenodd" clip-rule="evenodd" d="M682.633 99.1644L711.863 20.0002H720.388H728.913L758.143 99.1644H741.093L733.891 79.6779H706.885L699.684 99.1644H682.633ZM720.388 40.7047L709.652 69.9346H731.124L720.388 40.7047Z" fill="white"/>
<path fill-rule="evenodd" clip-rule="evenodd" d="M445.141 99.1644L474.37 20.0002H482.896H491.421L520.651 99.1644H503.6L496.399 79.6779H469.393L462.191 99.1644H445.141ZM482.896 40.7047L472.16 69.9346H493.632L482.896 40.7047Z" fill="white"/>
<path fill-rule="evenodd" clip-rule="evenodd" d="M130.919 99.1644L160.149 20.0002H168.675H177.2L206.43 99.1644H189.379L182.178 79.6779H155.172L147.97 99.1644H130.919ZM168.675 40.7047L157.939 69.9346H179.411L168.675 40.7047Z" fill="white"/>
</svg>
