<svg width="504" height="57" viewBox="0 0 504 57" fill="none" xmlns="http://www.w3.org/2000/svg">
<g filter="url(#filter0_d_644_112)">
<path fill-rule="evenodd" clip-rule="evenodd" d="M129.291 53C128.882 53 128.55 52.6625 128.55 52.2462V4.75385C128.55 4.33751 128.882 4 129.291 4H147.455C152.513 4 161.17 8.9 161.17 17.5692C161.17 24.8602 156.796 28.7037 152.859 30.5144C152.414 30.7186 152.251 31.2869 152.538 31.6873L166.982 51.8016C167.34 52.2998 166.99 53 166.383 53H156.357C156.12 53 155.898 52.885 155.758 52.6907L141.045 32.2016C140.906 32.0073 140.684 31.8923 140.447 31.8923H139.67C139.261 31.8923 138.929 32.2298 138.929 32.6462V52.2462C138.929 52.6625 138.597 53 138.188 53H129.291ZM138.929 10.0308V25.8615H143.377C147.825 25.8615 150.791 21.7154 150.791 17.5692C150.791 13.6085 147.455 10.0308 143.377 10.0308H138.929Z" fill="white"/>
<path d="M184.152 53C183.743 53 183.411 52.6625 183.411 52.2462V12.2923C183.411 11.876 183.079 11.5385 182.67 11.5385H167.842C167.433 11.5385 167.101 11.201 167.101 10.7846V4.75385C167.101 4.33751 167.433 4 167.842 4H209.359C209.768 4 210.1 4.33751 210.1 4.75385V10.7846C210.1 11.201 209.768 11.5385 209.359 11.5385H194.531C194.122 11.5385 193.79 11.876 193.79 12.2923V52.2462C193.79 52.6625 193.458 53 193.049 53H184.152Z" fill="white"/>
<path d="M218.255 53C217.846 53 217.514 52.6625 217.514 52.2462V4.75385C217.514 4.33751 217.846 4 218.255 4H227.06C227.469 4 227.801 4.33751 227.801 4.75385V25.1077C227.801 25.524 228.133 25.8615 228.542 25.8615H247.634C248.044 25.8615 248.376 25.524 248.376 25.1077V4.75385C248.376 4.33751 248.708 4 249.117 4H258.289C258.698 4 259.03 4.33751 259.03 4.75385V52.2462C259.03 52.6625 258.698 53 258.289 53H248.75C248.34 53 248.009 52.6625 248.009 52.2462V32.6462C248.009 32.2298 247.676 31.8923 247.267 31.8923H228.542C228.133 31.8923 227.801 32.2298 227.801 32.6462V52.2462C227.801 52.6625 227.469 53 227.06 53H218.255Z" fill="white"/>
<path d="M21.7928 11.5385L17.7153 11.5385C13.8256 11.5385 10.6723 14.0698 10.6723 17.1923C10.6723 18.7541 11.461 20.1678 12.7362 21.191C12.8585 21.2892 13.0111 21.3372 13.1666 21.3467C15.4975 21.4887 17.3446 23.4558 17.3446 25.8615C17.3446 28.3596 15.3531 30.3846 12.8964 30.3846C7.98306 30.3846 4 25.322 4 19.0769C4 10.7502 10.6384 4 18.8274 4H33.1365C33.4477 4 33.7258 4.19765 33.8327 4.49484L44.0822 32.9815C44.3192 33.6403 45.2349 33.6416 45.4739 32.9836L55.8194 4.49273C55.927 4.19664 56.2045 4 56.5149 4H67.0162C67.4257 4 67.7576 4.33751 67.7576 4.75385V52.2462C67.7576 52.6625 67.4257 53 67.0162 53H59.6026C59.1931 53 58.8612 52.6625 58.8612 52.2462V24.5465C58.8612 23.7051 57.711 23.496 57.4244 24.2854L47.1764 52.5073C47.0689 52.8033 46.7914 53 46.481 53H43.0695C42.7591 53 42.4815 52.8033 42.374 52.5073L32.1261 24.2854C31.8395 23.496 30.6892 23.7051 30.6892 24.5465V40.1846C30.6892 47.2623 25.0465 53 18.086 53C11.1254 53 5.48274 47.2623 5.48274 40.1846V39.8077C5.48274 35.4361 8.80195 31.8923 12.8964 31.8923C16.172 31.8923 18.8274 34.4236 18.8274 37.5462C18.8274 39.9877 16.6659 42.0122 13.8376 42.3848C13.3611 42.4476 13.0092 42.9101 13.2554 43.3296C13.9959 44.5913 15.5802 45.4615 17.3446 45.4615C19.8013 45.4615 21.7928 43.774 21.7928 41.6923V11.5385Z" fill="white"/>
<path d="M357.632 11.5385L353.555 11.5385C349.665 11.5385 346.512 14.0698 346.512 17.1923C346.512 18.7541 347.301 20.1678 348.576 21.191C348.698 21.2892 348.851 21.3372 349.007 21.3467C351.337 21.4887 353.184 23.4558 353.184 25.8615C353.184 28.3596 351.193 30.3846 348.736 30.3846C343.823 30.3846 339.84 25.322 339.84 19.0769C339.84 10.7502 346.478 4 354.667 4H368.976C369.287 4 369.565 4.19765 369.672 4.49484L379.922 32.9815C380.159 33.6403 381.074 33.6416 381.313 32.9836L391.659 4.49273C391.766 4.19664 392.044 4 392.354 4H402.856C403.265 4 403.597 4.33751 403.597 4.75385V52.2462C403.597 52.6625 403.265 53 402.856 53H395.442C395.033 53 394.701 52.6625 394.701 52.2462V24.5465C394.701 23.7051 393.551 23.496 393.264 24.2854L383.016 52.5073C382.909 52.8033 382.631 53 382.321 53H378.909C378.598 53 378.321 52.8033 378.213 52.5073L367.966 24.2854C367.679 23.496 366.529 23.7051 366.529 24.5465V40.1846C366.529 47.2623 360.886 53 353.926 53C346.965 53 341.322 47.2623 341.322 40.1846V39.8077C341.322 35.4361 344.641 31.8923 348.736 31.8923C352.011 31.8923 354.667 34.4236 354.667 37.5462C354.667 39.9877 352.505 42.0122 349.677 42.3848C349.201 42.4476 348.849 42.9101 349.095 43.3296C349.835 44.5913 351.42 45.4615 353.184 45.4615C355.641 45.4615 357.632 43.774 357.632 41.6923V11.5385Z" fill="white"/>
<path d="M471.062 53C470.652 53 470.32 52.6625 470.32 52.2462V32.1381C470.32 31.9784 470.271 31.8228 470.178 31.6937L451.163 5.19822C450.806 4.70008 451.156 4 451.762 4H460.293C460.537 4 460.765 4.12183 460.903 4.32586L474.9 24.9617C475.194 25.3962 475.826 25.3962 476.12 24.9617L490.116 4.32586C490.255 4.12183 490.482 4 490.726 4H499.257C499.864 4 500.214 4.70008 499.856 5.19822L480.842 31.6937C480.749 31.8228 480.699 31.9784 480.699 32.1381V52.2462C480.699 52.6625 480.367 53 479.958 53H471.062Z" fill="white"/>
<path fill-rule="evenodd" clip-rule="evenodd" d="M412.075 53C411.559 53 411.201 52.4773 411.379 51.985L428.625 4.49273C428.732 4.19663 429.01 4 429.32 4H438.666C438.977 4 439.254 4.19664 439.361 4.49273L456.607 51.985C456.786 52.4773 456.428 53 455.912 53H447.113C446.803 53 446.525 52.8035 446.418 52.5074L442.391 41.431C442.284 41.135 442.007 40.9385 441.696 40.9385H426.29C425.98 40.9385 425.702 41.135 425.595 41.431L421.569 52.5074C421.461 52.8035 421.184 53 420.873 53H412.075ZM434.689 18.7419C434.451 18.0834 433.535 18.0834 433.297 18.7419L427.824 33.8939C427.646 34.386 428.004 34.9077 428.52 34.9077H439.467C439.982 34.9077 440.34 34.386 440.162 33.8939L434.689 18.7419Z" fill="white"/>
<path fill-rule="evenodd" clip-rule="evenodd" d="M267.508 53C266.992 53 266.634 52.4773 266.813 51.985L284.058 4.49273C284.166 4.19663 284.443 4 284.754 4H294.099C294.41 4 294.687 4.19664 294.795 4.49273L312.04 51.985C312.219 52.4773 311.861 53 311.345 53H302.546C302.236 53 301.959 52.8035 301.851 52.5074L297.825 41.431C297.717 41.135 297.44 40.9385 297.129 40.9385H281.724C281.413 40.9385 281.136 41.135 281.028 41.431L277.002 52.5074C276.894 52.8035 276.617 53 276.307 53H267.508ZM290.123 18.7419C289.885 18.0834 288.968 18.0834 288.73 18.7419L283.258 33.8939C283.08 34.386 283.438 34.9077 283.953 34.9077H294.9C295.415 34.9077 295.773 34.386 295.595 33.8939L290.123 18.7419Z" fill="white"/>
<path fill-rule="evenodd" clip-rule="evenodd" d="M76.2353 53C75.7193 53 75.3611 52.4773 75.5398 51.985L92.7854 4.49273C92.8929 4.19663 93.1702 4 93.4808 4H102.827C103.137 4 103.414 4.19664 103.522 4.49273L120.768 51.985C120.946 52.4773 120.588 53 120.072 53H111.274C110.963 53 110.686 52.8035 110.578 52.5074L106.552 41.431C106.444 41.135 106.167 40.9385 105.856 40.9385H90.4509C90.1402 40.9385 89.863 41.135 89.7555 41.431L85.7291 52.5074C85.6216 52.8035 85.3443 53 85.0337 53H76.2353ZM98.8498 18.7419C98.6119 18.0834 97.6955 18.0834 97.4575 18.7419L91.9848 33.8939C91.8068 34.386 92.1649 34.9077 92.6802 34.9077H103.627C104.142 34.9077 104.501 34.386 104.323 33.8939L98.8498 18.7419Z" fill="white"/>
</g>
<defs>
<filter id="filter0_d_644_112" x="0" y="0" width="504" height="57" filterUnits="userSpaceOnUse" color-interpolation-filters="sRGB">
<feFlood flood-opacity="0" result="BackgroundImageFix"/>
<feColorMatrix in="SourceAlpha" type="matrix" values="0 0 0 0 0 0 0 0 0 0 0 0 0 0 0 0 0 0 127 0" result="hardAlpha"/>
<feOffset/>
<feGaussianBlur stdDeviation="2"/>
<feComposite in2="hardAlpha" operator="out"/>
<feColorMatrix type="matrix" values="0 0 0 0 0 0 0 0 0 0 0 0 0 0 0 0 0 0 0.25 0"/>
<feBlend mode="normal" in2="BackgroundImageFix" result="effect1_dropShadow_644_112"/>
<feBlend mode="normal" in="SourceGraphic" in2="effect1_dropShadow_644_112" result="shape"/>
</filter>
</defs>
</svg>
