<svg width="200" height="200" viewBox="0 0 200 200" fill="none" xmlns="http://www.w3.org/2000/svg">
<path d="M15 99.9319C15 114.464 18.6452 128.16 25.0748 140.137C30.518 150.277 40.2689 154.245 49.905 153.205C57.6516 152.37 65.3106 148.344 70.9897 141.937C66.8643 149.9 65.9896 158.981 68.392 166.782C71.1355 175.691 78.209 182.909 89.0914 184.305C92.6651 184.764 96.3062 185 100 185C103.694 185 107.335 184.764 110.909 184.305C121.791 182.909 128.864 175.691 131.608 166.782C134.01 158.981 133.136 149.9 129.01 141.937C134.689 148.343 142.348 152.37 150.095 153.205C159.731 154.245 169.482 150.277 174.925 140.137C181.355 128.16 185 114.464 185 99.9319C185 87.355 172.774 80.3789 161.914 82.8674L149.329 85.7512C157.013 82.4597 163.14 76.6705 166.417 69.7971C170.626 60.9695 170.053 50.3606 162.107 41.8529C155.461 34.7379 147.607 28.7643 138.869 24.2601C128.876 19.1091 118.773 21.208 111.44 27.2609C105.325 32.3082 101.114 40.0646 100 48.6995C98.8858 40.0646 94.6754 32.3082 88.5604 27.2609C81.2271 21.208 71.1241 19.1091 61.1309 24.2601C52.3926 28.7643 44.5385 34.7379 37.893 41.8529C29.9467 50.3606 29.3742 60.9695 33.583 69.7971C36.8601 76.6705 42.9873 82.4597 50.6711 85.7512L38.0862 82.8674C27.2263 80.3789 15 87.355 15 99.9319ZM96.0974 122.753C88.8107 123.689 82.1077 127.22 77.217 132.672C80.5152 126.049 81.4369 118.482 79.8178 111.254C83.221 117.328 89.2113 121.575 96.0974 122.753ZM83.1112 84.1033C78.1615 89.3871 75.9546 96.733 77.2044 103.902C73.7387 96.9551 67.8756 91.4915 60.7179 88.5202C68.4695 89.6139 76.3635 88.0538 83.1112 84.1033ZM110.509 79.306C103.916 75.9425 96.0841 75.9425 89.4909 79.306C95.2545 73.8291 98.9673 66.5309 100 58.6468C101.033 66.5309 104.745 73.8291 110.509 79.306ZM122.796 103.902C124.045 96.7329 121.838 89.3871 116.889 84.1033C123.637 88.0538 131.531 89.6139 139.282 88.5202C132.124 91.4916 126.261 96.9551 122.796 103.902ZM103.903 122.753C110.789 121.575 116.779 117.328 120.182 111.254C118.563 118.482 119.485 126.049 122.783 132.672C117.892 127.22 111.189 123.689 103.903 122.753Z" fill="url(#paint0_radial_67_382)" stroke="white" stroke-width="10"/>
<defs>
<radialGradient id="paint0_radial_67_382" cx="0" cy="0" r="1" gradientUnits="userSpaceOnUse" gradientTransform="translate(100 99.9319) rotate(90) scale(89.4879 89.4118)">
<stop offset="0.0208333" stop-color="#FFED50"/>
<stop offset="0.34375" stop-color="#E129FF"/>
<stop offset="0.854167" stop-color="#DBC6FF"/>
</radialGradient>
</defs>
</svg>
