<svg width="912" height="306" viewBox="0 0 912 306" fill="none" xmlns="http://www.w3.org/2000/svg">
<path d="M172.424 97.96V193H161.48V133.24L162.776 108.184H162.632L131.384 193H121.592L90.344 108.184H90.2L91.496 133.24V193H80.552V97.96H98.264L119.144 155.704L126.344 179.464H126.632L133.976 155.848L154.712 97.96H172.424ZM242.503 146.488C242.503 141.112 241.063 136.984 238.183 134.104C235.303 131.128 231.223 129.64 225.943 129.64C220.951 129.64 216.727 130.744 213.271 132.952C209.815 135.064 207.271 138.52 205.639 143.32L196.279 137.56C198.199 132.184 201.751 127.864 206.935 124.6C212.119 121.24 218.551 119.56 226.231 119.56C231.415 119.56 236.119 120.472 240.343 122.296C244.567 124.024 247.879 126.712 250.279 130.36C252.775 133.912 254.023 138.52 254.023 144.184V179.032C254.023 182.488 255.847 184.216 259.495 184.216C261.319 184.216 263.095 183.976 264.823 183.496L264.247 192.568C262.327 193.528 259.831 194.008 256.759 194.008C253.975 194.008 251.479 193.48 249.271 192.424C247.063 191.368 245.335 189.784 244.087 187.672C242.839 185.464 242.215 182.728 242.215 179.464V178.024L245.095 178.456C243.943 182.2 241.975 185.272 239.191 187.672C236.407 189.976 233.287 191.704 229.831 192.856C226.375 193.912 222.967 194.44 219.607 194.44C215.383 194.44 211.447 193.72 207.799 192.28C204.151 190.84 201.223 188.68 199.015 185.8C196.903 182.824 195.847 179.176 195.847 174.856C195.847 169.48 197.623 165.064 201.175 161.608C204.823 158.056 209.863 155.656 216.295 154.408L244.807 148.792V158.296L221.623 163.048C216.919 164.008 213.415 165.352 211.111 167.08C208.807 168.808 207.655 171.208 207.655 174.28C207.655 177.256 208.807 179.704 211.111 181.624C213.511 183.448 216.871 184.36 221.191 184.36C223.975 184.36 226.615 184.024 229.111 183.352C231.703 182.584 234.007 181.48 236.023 180.04C238.039 178.504 239.623 176.632 240.775 174.424C241.927 172.12 242.503 169.432 242.503 166.36V146.488ZM310.097 194.44C304.145 194.44 298.673 192.952 293.681 189.976C288.689 187 284.705 182.728 281.729 177.16C278.753 171.496 277.265 164.776 277.265 157C277.265 149.032 278.849 142.264 282.017 136.696C285.185 131.128 289.361 126.904 294.545 124.024C299.729 121.048 305.297 119.56 311.249 119.56C317.201 119.56 322.337 121.096 326.657 124.168C331.073 127.24 334.001 131.32 335.441 136.408L334.001 137.416V87.88H345.521V193H335.441L334.433 175.576L336.017 174.712C335.345 178.936 333.713 182.536 331.121 185.512C328.625 188.392 325.505 190.6 321.761 192.136C318.113 193.672 314.225 194.44 310.097 194.44ZM311.249 184.36C315.857 184.36 319.841 183.208 323.201 180.904C326.657 178.6 329.297 175.336 331.121 171.112C333.041 166.792 334.001 161.752 334.001 155.992C334.001 150.52 333.041 145.816 331.121 141.88C329.297 137.944 326.705 134.92 323.345 132.808C320.081 130.696 316.241 129.64 311.825 129.64C304.529 129.64 298.865 132.136 294.833 137.128C290.801 142.12 288.785 148.744 288.785 157C288.785 165.256 290.753 171.88 294.689 176.872C298.625 181.864 304.145 184.36 311.249 184.36ZM402.394 194.44C395.578 194.44 389.482 192.952 384.106 189.976C378.826 187 374.698 182.728 371.722 177.16C368.746 171.496 367.258 164.776 367.258 157C367.258 149.224 368.746 142.552 371.722 136.984C374.698 131.32 378.778 127 383.962 124.024C389.146 121.048 395.05 119.56 401.674 119.56C408.394 119.56 414.106 121 418.81 123.88C423.61 126.76 427.258 130.696 429.754 135.688C432.25 140.584 433.498 146.104 433.498 152.248C433.498 153.88 433.45 155.368 433.354 156.712C433.258 158.056 433.114 159.256 432.922 160.312H374.746V150.088H427.882L421.978 151.24C421.978 144.328 420.058 139 416.218 135.256C412.474 131.512 407.53 129.64 401.386 129.64C396.682 129.64 392.602 130.744 389.146 132.952C385.786 135.064 383.146 138.184 381.226 142.312C379.402 146.344 378.49 151.24 378.49 157C378.49 162.664 379.45 167.56 381.37 171.688C383.29 175.816 385.978 178.984 389.434 181.192C392.986 183.304 397.21 184.36 402.106 184.36C407.386 184.36 411.658 183.352 414.922 181.336C418.282 179.32 420.97 176.584 422.986 173.128L432.058 178.456C430.234 181.72 427.882 184.552 425.002 186.952C422.218 189.352 418.906 191.224 415.066 192.568C411.322 193.816 407.098 194.44 402.394 194.44ZM539.766 194.44C535.734 194.44 531.99 193.72 528.534 192.28C525.078 190.84 522.102 188.824 519.606 186.232C517.11 183.64 515.238 180.712 513.99 177.448L515.574 175.432L514.566 193H504.486V87.88H516.006V137.272L514.566 135.112C516.486 130.6 519.702 126.904 524.214 124.024C528.822 121.048 534.054 119.56 539.91 119.56C545.862 119.56 551.334 121.048 556.326 124.024C561.318 127 565.302 131.272 568.278 136.84C571.254 142.408 572.742 149.128 572.742 157C572.742 164.776 571.206 171.496 568.134 177.16C565.158 182.728 561.174 187 556.182 189.976C551.19 192.952 545.718 194.44 539.766 194.44ZM538.614 184.36C545.718 184.36 551.238 181.864 555.174 176.872C559.206 171.88 561.222 165.256 561.222 157C561.222 148.744 559.254 142.12 555.318 137.128C551.382 132.136 545.862 129.64 538.758 129.64C534.246 129.64 530.262 130.792 526.806 133.096C523.446 135.4 520.806 138.616 518.886 142.744C516.966 146.872 516.006 151.72 516.006 157.288C516.006 162.76 516.918 167.56 518.742 171.688C520.662 175.72 523.302 178.84 526.662 181.048C530.118 183.256 534.102 184.36 538.614 184.36ZM651.842 121L618.002 205.096C616.178 209.8 614.162 213.496 611.954 216.184C609.842 218.968 607.442 220.936 604.754 222.088C602.162 223.336 599.138 223.96 595.682 223.96C592.418 223.96 589.394 223.48 586.61 222.52C583.922 221.656 581.522 220.456 579.41 218.92L582.578 208.84C584.498 210.568 586.514 211.816 588.626 212.584C590.834 213.448 592.994 213.88 595.106 213.88C597.602 213.88 599.954 213.112 602.162 211.576C604.37 210.04 606.386 206.92 608.21 202.216L611.954 192.856L604.754 175.72L581.858 121H594.962L612.962 167.944L617.426 180.76L622.61 166.504L639.458 121H651.842Z" fill="#290A19"/>
<rect x="712" y="91" width="120" height="120" fill="#FC5555"/>
<path fill-rule="evenodd" clip-rule="evenodd" d="M793.062 113.612C796.051 114.856 798 117.787 798 121.037V161.223H806V177.298H798V185.335H782V177.298H742C738.765 177.298 735.847 175.339 734.609 172.336C733.371 169.333 734.055 165.876 736.343 163.577L784.343 115.354C786.631 113.056 790.072 112.368 793.062 113.612ZM782 161.223V140.441L761.314 161.223H782Z" fill="#290A19"/>
</svg>
