<svg width="1223" height="302" viewBox="0 0 1223 302" fill="none" xmlns="http://www.w3.org/2000/svg">
<g filter="url(#filter0_dd_37_114)">
<path d="M181.424 97.96V193H170.48V133.24L171.776 108.184H171.632L140.384 193H130.592L99.344 108.184H99.2L100.496 133.24V193H89.552V97.96H107.264L128.144 155.704L135.344 179.464H135.632L142.976 155.848L163.712 97.96H181.424ZM251.503 146.488C251.503 141.112 250.063 136.984 247.183 134.104C244.303 131.128 240.223 129.64 234.943 129.64C229.951 129.64 225.727 130.744 222.271 132.952C218.815 135.064 216.271 138.52 214.639 143.32L205.279 137.56C207.199 132.184 210.751 127.864 215.935 124.6C221.119 121.24 227.551 119.56 235.231 119.56C240.415 119.56 245.119 120.472 249.343 122.296C253.567 124.024 256.879 126.712 259.279 130.36C261.775 133.912 263.023 138.52 263.023 144.184V179.032C263.023 182.488 264.847 184.216 268.495 184.216C270.319 184.216 272.095 183.976 273.823 183.496L273.247 192.568C271.327 193.528 268.831 194.008 265.759 194.008C262.975 194.008 260.479 193.48 258.271 192.424C256.063 191.368 254.335 189.784 253.087 187.672C251.839 185.464 251.215 182.728 251.215 179.464V178.024L254.095 178.456C252.943 182.2 250.975 185.272 248.191 187.672C245.407 189.976 242.287 191.704 238.831 192.856C235.375 193.912 231.967 194.44 228.607 194.44C224.383 194.44 220.447 193.72 216.799 192.28C213.151 190.84 210.223 188.68 208.015 185.8C205.903 182.824 204.847 179.176 204.847 174.856C204.847 169.48 206.623 165.064 210.175 161.608C213.823 158.056 218.863 155.656 225.295 154.408L253.807 148.792V158.296L230.623 163.048C225.919 164.008 222.415 165.352 220.111 167.08C217.807 168.808 216.655 171.208 216.655 174.28C216.655 177.256 217.807 179.704 220.111 181.624C222.511 183.448 225.871 184.36 230.191 184.36C232.975 184.36 235.615 184.024 238.111 183.352C240.703 182.584 243.007 181.48 245.023 180.04C247.039 178.504 248.623 176.632 249.775 174.424C250.927 172.12 251.503 169.432 251.503 166.36V146.488ZM319.097 194.44C313.145 194.44 307.673 192.952 302.681 189.976C297.689 187 293.705 182.728 290.729 177.16C287.753 171.496 286.265 164.776 286.265 157C286.265 149.032 287.849 142.264 291.017 136.696C294.185 131.128 298.361 126.904 303.545 124.024C308.729 121.048 314.297 119.56 320.249 119.56C326.201 119.56 331.337 121.096 335.657 124.168C340.073 127.24 343.001 131.32 344.441 136.408L343.001 137.416V87.88H354.521V193H344.441L343.433 175.576L345.017 174.712C344.345 178.936 342.713 182.536 340.121 185.512C337.625 188.392 334.505 190.6 330.761 192.136C327.113 193.672 323.225 194.44 319.097 194.44ZM320.249 184.36C324.857 184.36 328.841 183.208 332.201 180.904C335.657 178.6 338.297 175.336 340.121 171.112C342.041 166.792 343.001 161.752 343.001 155.992C343.001 150.52 342.041 145.816 340.121 141.88C338.297 137.944 335.705 134.92 332.345 132.808C329.081 130.696 325.241 129.64 320.825 129.64C313.529 129.64 307.865 132.136 303.833 137.128C299.801 142.12 297.785 148.744 297.785 157C297.785 165.256 299.753 171.88 303.689 176.872C307.625 181.864 313.145 184.36 320.249 184.36ZM411.394 194.44C404.578 194.44 398.482 192.952 393.106 189.976C387.826 187 383.698 182.728 380.722 177.16C377.746 171.496 376.258 164.776 376.258 157C376.258 149.224 377.746 142.552 380.722 136.984C383.698 131.32 387.778 127 392.962 124.024C398.146 121.048 404.05 119.56 410.674 119.56C417.394 119.56 423.106 121 427.81 123.88C432.61 126.76 436.258 130.696 438.754 135.688C441.25 140.584 442.498 146.104 442.498 152.248C442.498 153.88 442.45 155.368 442.354 156.712C442.258 158.056 442.114 159.256 441.922 160.312H383.746V150.088H436.882L430.978 151.24C430.978 144.328 429.058 139 425.218 135.256C421.474 131.512 416.53 129.64 410.386 129.64C405.682 129.64 401.602 130.744 398.146 132.952C394.786 135.064 392.146 138.184 390.226 142.312C388.402 146.344 387.49 151.24 387.49 157C387.49 162.664 388.45 167.56 390.37 171.688C392.29 175.816 394.978 178.984 398.434 181.192C401.986 183.304 406.21 184.36 411.106 184.36C416.386 184.36 420.658 183.352 423.922 181.336C427.282 179.32 429.97 176.584 431.986 173.128L441.058 178.456C439.234 181.72 436.882 184.552 434.002 186.952C431.218 189.352 427.906 191.224 424.066 192.568C420.322 193.816 416.098 194.44 411.394 194.44ZM548.766 194.44C544.734 194.44 540.99 193.72 537.534 192.28C534.078 190.84 531.102 188.824 528.606 186.232C526.11 183.64 524.238 180.712 522.99 177.448L524.574 175.432L523.566 193H513.486V87.88H525.006V137.272L523.566 135.112C525.486 130.6 528.702 126.904 533.214 124.024C537.822 121.048 543.054 119.56 548.91 119.56C554.862 119.56 560.334 121.048 565.326 124.024C570.318 127 574.302 131.272 577.278 136.84C580.254 142.408 581.742 149.128 581.742 157C581.742 164.776 580.206 171.496 577.134 177.16C574.158 182.728 570.174 187 565.182 189.976C560.19 192.952 554.718 194.44 548.766 194.44ZM547.614 184.36C554.718 184.36 560.238 181.864 564.174 176.872C568.206 171.88 570.222 165.256 570.222 157C570.222 148.744 568.254 142.12 564.318 137.128C560.382 132.136 554.862 129.64 547.758 129.64C543.246 129.64 539.262 130.792 535.806 133.096C532.446 135.4 529.806 138.616 527.886 142.744C525.966 146.872 525.006 151.72 525.006 157.288C525.006 162.76 525.918 167.56 527.742 171.688C529.662 175.72 532.302 178.84 535.662 181.048C539.118 183.256 543.102 184.36 547.614 184.36ZM660.842 121L627.002 205.096C625.178 209.8 623.162 213.496 620.954 216.184C618.842 218.968 616.442 220.936 613.754 222.088C611.162 223.336 608.138 223.96 604.682 223.96C601.418 223.96 598.394 223.48 595.61 222.52C592.922 221.656 590.522 220.456 588.41 218.92L591.578 208.84C593.498 210.568 595.514 211.816 597.626 212.584C599.834 213.448 601.994 213.88 604.106 213.88C606.602 213.88 608.954 213.112 611.162 211.576C613.37 210.04 615.386 206.92 617.21 202.216L620.954 192.856L613.754 175.72L590.858 121H603.962L621.962 167.944L626.426 180.76L631.61 166.504L648.458 121H660.842Z" fill="white"/>
<rect x="721" y="91" width="120" height="120" fill="#FC5555"/>
<path fill-rule="evenodd" clip-rule="evenodd" d="M802.062 113.612C805.051 114.856 807 117.787 807 121.037V161.223H815V177.298H807V185.335H791V177.298H751C747.765 177.298 744.847 175.339 743.609 172.336C742.371 169.333 743.055 165.876 745.343 163.577L793.343 115.354C795.631 113.056 799.072 112.368 802.062 113.612ZM791 161.223V140.441L770.314 161.223H791Z" fill="#290A19"/>
</g>
<path d="M1064.51 97.2948L1064.22 97H1063.81H1056H1053.6L1055.29 98.7052L1100.73 144.394C1105.73 149.422 1105.73 157.578 1100.73 162.606L1055.29 208.295L1053.6 210H1056H1063.81H1064.22L1064.51 209.705L1106.05 167.941L1105.34 167.236L1106.05 167.941C1113.98 159.964 1113.98 147.036 1106.05 139.059L1106.05 139.059L1064.51 97.2948Z" fill="white" stroke="white" stroke-width="2"/>
<rect x="930" width="2" height="302" fill="white"/>
<defs>
<filter id="filter0_dd_37_114" x="84.552" y="82.88" width="761.448" height="149.08" filterUnits="userSpaceOnUse" color-interpolation-filters="sRGB">
<feFlood flood-opacity="0" result="BackgroundImageFix"/>
<feColorMatrix in="SourceAlpha" type="matrix" values="0 0 0 0 0 0 0 0 0 0 0 0 0 0 0 0 0 0 127 0" result="hardAlpha"/>
<feOffset/>
<feGaussianBlur stdDeviation="2.5"/>
<feComposite in2="hardAlpha" operator="out"/>
<feColorMatrix type="matrix" values="0 0 0 0 0 0 0 0 0 0 0 0 0 0 0 0 0 0 0.13 0"/>
<feBlend mode="normal" in2="BackgroundImageFix" result="effect1_dropShadow_37_114"/>
<feColorMatrix in="SourceAlpha" type="matrix" values="0 0 0 0 0 0 0 0 0 0 0 0 0 0 0 0 0 0 127 0" result="hardAlpha"/>
<feOffset dy="4"/>
<feGaussianBlur stdDeviation="2"/>
<feComposite in2="hardAlpha" operator="out"/>
<feColorMatrix type="matrix" values="0 0 0 0 0 0 0 0 0 0 0 0 0 0 0 0 0 0 0.12 0"/>
<feBlend mode="normal" in2="effect1_dropShadow_37_114" result="effect2_dropShadow_37_114"/>
<feBlend mode="normal" in="SourceGraphic" in2="effect2_dropShadow_37_114" result="shape"/>
</filter>
</defs>
</svg>
