<svg width="41" height="40" viewBox="0 0 41 40" fill="none" xmlns="http://www.w3.org/2000/svg">
<path d="M20.0017 0C8.95632 0 0.00183105 8.95446 0.00183105 20.0001C0.00183105 31.0463 8.95632 40 20.0017 40C31.0483 40 40.0018 31.0463 40.0018 20.0001C40.0018 8.95518 31.0483 0.000955316 20.0015 0.000955316L20.0017 0V0ZM29.1735 28.8459C28.8153 29.4334 28.0463 29.6197 27.4588 29.2591C22.763 26.3907 16.8516 25.7411 9.88988 27.3317C9.21902 27.4846 8.55032 27.0642 8.39747 26.3931C8.2439 25.722 8.66256 25.0533 9.33509 24.9004C16.9536 23.1591 23.4885 23.9093 28.7604 27.1311C29.3479 27.4917 29.5342 28.2584 29.1735 28.8459V28.8459ZM31.6215 23.3994C31.1701 24.1338 30.21 24.3655 29.4768 23.9141C24.1009 20.6089 15.9061 19.6519 9.54741 21.5821C8.72275 21.8312 7.85175 21.3665 7.60147 20.5432C7.35309 19.7185 7.81808 18.8492 8.64131 18.5984C15.9047 16.3945 24.9344 17.4621 31.108 21.2559C31.8412 21.7073 32.0729 22.6674 31.6215 23.3996V23.3994ZM31.8316 17.7286C25.3858 13.8999 14.7509 13.5479 8.59665 15.4158C7.60839 15.7155 6.5633 15.1576 6.26381 14.1693C5.96432 13.1806 6.52174 12.1362 7.51071 11.8357C14.5754 9.69101 26.3196 10.1054 33.7408 14.5111C34.6316 15.0387 34.923 16.1867 34.3952 17.0744C33.8698 17.9634 32.7186 18.2564 31.8326 17.7286H31.8316Z" fill="#1ED760"/>
<path d="M20.0017 0C8.95632 0 0.00183105 8.95446 0.00183105 20.0001C0.00183105 31.0463 8.95632 40 20.0017 40C31.0483 40 40.0018 31.0463 40.0018 20.0001C40.0018 8.95518 31.0483 0.000955316 20.0015 0.000955316L20.0017 0V0ZM29.1735 28.8459C28.8153 29.4334 28.0463 29.6197 27.4588 29.2591C22.763 26.3907 16.8516 25.7411 9.88988 27.3317C9.21902 27.4846 8.55032 27.0642 8.39747 26.3931C8.2439 25.722 8.66256 25.0533 9.33509 24.9004C16.9536 23.1591 23.4885 23.9093 28.7604 27.1311C29.3479 27.4917 29.5342 28.2584 29.1735 28.8459V28.8459ZM31.6215 23.3994C31.1701 24.1338 30.21 24.3655 29.4768 23.9141C24.1009 20.6089 15.9061 19.6519 9.54741 21.5821C8.72275 21.8312 7.85175 21.3665 7.60147 20.5432C7.35309 19.7185 7.81808 18.8492 8.64131 18.5984C15.9047 16.3945 24.9344 17.4621 31.108 21.2559C31.8412 21.7073 32.0729 22.6674 31.6215 23.3996V23.3994ZM31.8316 17.7286C25.3858 13.8999 14.7509 13.5479 8.59665 15.4158C7.60839 15.7155 6.5633 15.1576 6.26381 14.1693C5.96432 13.1806 6.52174 12.1362 7.51071 11.8357C14.5754 9.69101 26.3196 10.1054 33.7408 14.5111C34.6316 15.0387 34.923 16.1867 34.3952 17.0744C33.8698 17.9634 32.7186 18.2564 31.8326 17.7286H31.8316Z" fill="white"/>
</svg>
