<svg width="71" height="71" viewBox="0 0 71 71" fill="none" xmlns="http://www.w3.org/2000/svg">
<path d="M35.4998 0C15.8942 0 0 15.8942 0 35.5002C0 55.1072 15.8942 71 35.4998 71C55.1075 71 71 55.1072 71 35.5002C71 15.8954 55.1075 0.00169569 35.4994 0.00169569L35.4998 0ZM51.7798 51.2015C51.1439 52.2443 49.779 52.575 48.7362 51.9349C40.4011 46.8435 29.9084 45.6905 17.5513 48.5138C16.3605 48.7852 15.1736 48.039 14.9023 46.8478C14.6297 45.6566 15.3728 44.4696 16.5665 44.1982C30.0894 41.1074 41.6889 42.439 51.0465 48.1577C52.0893 48.7978 52.42 50.1587 51.7798 51.2015ZM56.125 41.5339C55.3237 42.8375 53.6195 43.2488 52.3181 42.4475C42.7759 36.5808 28.2301 34.8821 16.9434 38.3082C15.4796 38.7504 13.9336 37.9255 13.4894 36.4642C13.0485 35.0003 13.8739 33.4573 15.3351 33.0122C28.2276 29.1002 44.2553 30.9952 55.2135 37.7292C56.5149 38.5305 56.9262 40.2346 56.125 41.5343V41.5339ZM56.4979 31.4683C45.0566 24.6723 26.1796 24.0475 15.2558 27.363C13.5017 27.895 11.6466 26.9047 11.115 25.1505C10.5834 23.3956 11.5728 21.5418 13.3283 21.0084C25.8681 17.2015 46.7141 17.9371 59.8867 25.7572C61.4679 26.6937 61.9851 28.7314 61.0483 30.3071C60.1157 31.885 58.0723 32.4051 56.4997 31.4683H56.4979Z" fill="#F4F0FF"/>
</svg>
