<svg width="53" height="54" viewBox="0 0 53 54" fill="none" xmlns="http://www.w3.org/2000/svg">
<path d="M26.4998 0.5C11.8647 0.5 0 12.3647 0 27.0001C0 41.6363 11.8647 53.5 26.4998 53.5C41.1366 53.5 53 41.6363 53 27.0001C53 12.3656 41.1366 0.501266 26.4996 0.501266L26.4998 0.5ZM38.6525 38.7208C38.1779 39.4993 37.1589 39.7461 36.3805 39.2683C30.1586 35.4677 22.326 34.607 13.1017 36.7145C12.2128 36.9171 11.3268 36.3601 11.1242 35.4709C10.9208 34.5817 11.4755 33.6956 12.3666 33.493C22.4611 31.1858 31.1199 32.1798 38.1051 36.4487C38.8836 36.9265 39.1304 37.9424 38.6525 38.7208ZM41.8961 31.5042C41.298 32.4773 40.0259 32.7843 39.0544 32.1862C31.9313 27.8068 21.0732 26.5388 12.6479 29.0963C11.5552 29.4263 10.4012 28.8106 10.0695 27.7197C9.74043 26.627 10.3565 25.4752 11.4473 25.1429C21.0713 22.2227 33.0357 23.6373 41.2157 28.6641C42.1872 29.2622 42.4942 30.5343 41.8961 31.5045V31.5042ZM42.1745 23.9904C33.6338 18.9174 19.5425 18.451 11.3881 20.9259C10.0787 21.323 8.69395 20.5838 8.29713 19.2743C7.9003 17.9643 8.63889 16.5805 9.94927 16.1823C19.31 13.3406 34.8711 13.8897 44.7042 19.7272C45.8845 20.4263 46.2706 21.9474 45.5712 23.1236C44.8751 24.3015 43.3498 24.6897 42.1758 23.9904H42.1745Z" fill="white"/>
</svg>
