<svg width="40" height="46" viewBox="0 0 40 46" fill="none" xmlns="http://www.w3.org/2000/svg">
<path d="M21.0109 0.0385714C23.5216 0 26.0179 0.0228571 28.5113 0C28.6624 2.91571 29.7185 5.88571 31.868 7.94714C34.0132 10.06 37.0476 11.0271 40 11.3543V19.0243C37.2332 18.9343 34.4535 18.3629 31.9428 17.18C30.8493 16.6886 29.8307 16.0557 28.8336 15.4086C28.8207 20.9743 28.8566 26.5329 28.7976 32.0757C28.648 34.7386 27.7631 37.3886 26.2035 39.5829C23.6943 43.2357 19.3391 45.6171 14.8659 45.6914C12.1221 45.8471 9.38124 45.1043 7.04322 43.7357C3.16857 41.4671 0.442079 37.3143 0.0449751 32.8571C-0.00106597 31.9043 -0.0168926 30.9529 0.0219545 30.0229C0.367263 26.3986 2.17294 22.9314 4.97569 20.5729C8.15252 17.8257 12.6027 16.5171 16.7694 17.2914C16.8082 20.1129 16.6946 22.9314 16.6946 25.7529C14.7911 25.1414 12.5667 25.3129 10.9035 26.46C9.68914 27.2414 8.76688 28.4386 8.28633 29.7929C7.88922 30.7586 8.00289 31.8314 8.02591 32.8571C8.482 35.9829 11.5092 38.61 14.7407 38.3257C16.8831 38.3029 18.9362 37.0686 20.0527 35.2614C20.4138 34.6286 20.8181 33.9814 20.8397 33.2371C21.0282 29.83 20.9534 26.4371 20.9764 23.03C20.9922 15.3514 20.9534 7.69429 21.0124 0.04L21.0109 0.0385714Z" fill="white"/>
</svg>
