<svg width="71" height="71" viewBox="0 0 71 71" fill="none" xmlns="http://www.w3.org/2000/svg">
<path d="M37.1427 0.0599094C41.2226 0 45.2791 0.0355019 49.3309 0C49.5764 4.52871 51.2926 9.14174 54.7855 12.3436C58.2715 15.6253 63.2024 17.1274 68 17.6356V29.5487C63.504 29.4089 58.9869 28.5214 54.9071 26.6841C53.1301 25.9209 51.4749 24.9379 49.8546 23.9328C49.8336 32.5775 49.892 41.2111 49.7961 49.8203C49.553 53.9563 48.115 58.0723 45.5807 61.4805C41.5032 67.1541 34.426 70.8529 27.1571 70.9683C22.6984 71.2101 18.2445 70.0564 14.4452 67.9307C8.14893 64.4071 3.71838 57.9569 3.07308 51.0339C2.99827 49.554 2.97255 48.0763 3.03568 46.6318C3.5968 41.0025 6.53103 35.6173 11.0855 31.954C16.2478 27.687 23.4794 25.6545 30.2503 26.8572C30.3133 31.2395 30.1287 35.6173 30.1287 39.9996C27.0355 39.0498 23.4209 39.3162 20.7182 41.0979C18.7449 42.3116 17.2462 44.1711 16.4653 46.2746C15.82 47.7745 16.0047 49.4408 16.0421 51.0339C16.7833 55.889 21.7024 59.9694 26.9536 59.5278C30.435 59.4924 33.7713 57.5753 35.5856 54.7683C36.1724 53.7854 36.8294 52.7802 36.8645 51.6242C37.1708 46.3322 37.0493 41.0623 37.0867 35.7704C37.1123 23.8439 37.0493 11.9508 37.1451 0.0621284L37.1427 0.0599094Z" fill="#F4F0FF"/>
</svg>
