<svg width="49" height="54" viewBox="0 0 49 54" fill="none" xmlns="http://www.w3.org/2000/svg">
<path d="M25.7384 0.544721C28.814 0.5 31.8719 0.526501 34.9263 0.5C35.1114 3.88058 36.4052 7.32411 39.0383 9.71421C41.6662 12.1639 45.3833 13.2852 49 13.6646V22.5575C45.6107 22.4531 42.2055 21.7906 39.1299 20.4191C37.7904 19.8494 36.5426 19.1156 35.3212 18.3653C35.3054 24.8184 35.3493 31.2632 35.2771 37.6898C35.0938 40.7772 34.0098 43.8498 32.0993 46.3939C29.0255 50.6291 23.6904 53.3902 18.2107 53.4763C14.8496 53.6569 11.492 52.7956 8.62794 51.2088C3.8815 48.5785 0.541547 43.7636 0.0550945 38.5958C-0.00130583 37.491 -0.0206935 36.388 0.0268942 35.3097C0.449897 31.1075 2.66185 27.0875 6.09522 24.353C9.98684 21.1678 15.4383 19.6505 20.5425 20.5483C20.59 23.8197 20.4509 27.0875 20.4509 30.3589C18.1191 29.6499 15.3942 29.8487 13.3568 31.1787C11.8692 32.0847 10.7394 33.4728 10.1508 35.043C9.66429 36.1627 9.80354 37.4065 9.83174 38.5958C10.3905 42.2199 14.0988 45.2659 18.0574 44.9363C20.6818 44.9098 23.1968 43.4787 24.5646 41.3834C25.0069 40.6497 25.5022 39.8993 25.5286 39.0363C25.7595 35.086 25.6679 31.1522 25.6961 27.2019C25.7154 18.299 25.6679 9.42105 25.7402 0.546378L25.7384 0.544721Z" fill="white"/>
</svg>
