<svg width="53" height="54" viewBox="0 0 53 54" fill="none" xmlns="http://www.w3.org/2000/svg">
<path d="M26.5025 0.5C19.3055 0.5 18.4023 0.531469 15.5755 0.660105C12.7544 0.789293 10.8287 1.23593 9.14371 1.89125C7.40075 2.5681 5.92226 3.47353 4.44928 4.94703C2.97521 6.41999 2.06978 7.89847 1.39071 9.64084C0.733725 11.3263 0.286534 13.2526 0.159554 16.0726C0.0331251 18.8992 0 19.803 0 27C0 34.197 0.0320217 35.0975 0.160106 37.9241C0.289848 40.7453 0.736487 42.6709 1.39126 44.3558C2.06868 46.0988 2.97411 47.5773 4.44763 49.0503C5.92005 50.5243 7.39855 51.4319 9.14039 52.1088C10.8265 52.7641 12.7527 53.2108 15.5734 53.3399C18.4 53.4685 19.3027 53.5 26.4992 53.5C33.6967 53.5 34.5972 53.4685 37.424 53.3399C40.2452 53.2108 42.173 52.7641 43.8591 52.1088C45.6015 51.4319 47.0778 50.5243 48.5501 49.0503C50.0242 47.5773 50.9297 46.0988 51.6088 44.3564C52.2603 42.6709 52.7074 40.7446 52.8399 37.9246C52.9669 35.098 53 34.197 53 27C53 19.803 52.9669 18.8999 52.8399 16.0731C52.7074 13.252 52.2603 11.3263 51.6088 9.6414C50.9297 7.89847 50.0242 6.41999 48.5501 4.94703C47.0761 3.47297 45.602 2.56756 43.8574 1.89125C42.168 1.23593 40.2412 0.789293 37.42 0.660105C34.5934 0.531469 33.6934 0.5 26.4942 0.5H26.5025ZM24.1252 5.27553C24.8308 5.27441 25.6181 5.27553 26.5025 5.27553C33.578 5.27553 34.4167 5.30091 37.2108 5.4279C39.7945 5.54604 41.1969 5.97778 42.131 6.34049C43.3677 6.82081 44.2494 7.39497 45.1764 8.32247C46.1039 9.24997 46.678 10.1333 47.1594 11.37C47.5222 12.303 47.9544 13.7053 48.0721 16.289C48.199 19.0826 48.2267 19.9217 48.2267 26.9939C48.2267 34.0661 48.199 34.9052 48.0721 37.6988C47.9539 40.2826 47.5222 41.6848 47.1594 42.6179C46.6791 43.8545 46.1039 44.7351 45.1764 45.6621C44.2488 46.5896 43.3683 47.1637 42.131 47.644C41.198 48.0084 39.7945 48.439 37.2108 48.5572C34.4173 48.6842 33.578 48.7118 26.5025 48.7118C19.4264 48.7118 18.5878 48.6842 15.7941 48.5572C13.2104 48.438 11.8081 48.0062 10.8734 47.6435C9.63671 47.1632 8.75337 46.5891 7.82586 45.6616C6.89835 44.7341 6.32419 43.8529 5.84276 42.6157C5.48004 41.6827 5.04775 40.2803 4.93015 37.6966C4.80318 34.9031 4.77778 34.0638 4.77778 26.9873C4.77778 19.9107 4.80318 19.076 4.93015 16.2825C5.0483 13.6987 5.48004 12.2964 5.84276 11.3622C6.32307 10.1256 6.89835 9.24224 7.82586 8.31474C8.75337 7.38724 9.63671 6.81307 10.8734 6.33166C11.8075 5.96728 13.2104 5.53666 15.7941 5.41796C18.2388 5.30754 19.1863 5.27441 24.1252 5.2689V5.27553ZM40.6481 9.67563C38.8925 9.67563 37.4681 11.0983 37.4681 12.8545C37.4681 14.6102 38.8925 16.0346 40.6481 16.0346C42.4037 16.0346 43.8281 14.6102 43.8281 12.8545C43.8281 11.0989 42.4037 9.67453 40.6481 9.67453V9.67563ZM26.5025 13.3912C18.9869 13.3912 12.8935 19.4845 12.8935 27C12.8935 34.5155 18.9869 40.606 26.5025 40.606C34.0181 40.606 40.1092 34.5155 40.1092 27C40.1092 19.4845 34.0175 13.3912 26.502 13.3912H26.5025ZM26.5025 18.1666C31.3808 18.1666 35.3359 22.1212 35.3359 27C35.3359 31.8783 31.3808 35.8334 26.5025 35.8334C21.6237 35.8334 17.669 31.8783 17.669 27C17.669 22.1212 21.6237 18.1666 26.5025 18.1666Z" fill="white"/>
</svg>
