<svg width="100" height="100" viewBox="0 0 100 100" fill="none" xmlns="http://www.w3.org/2000/svg">
<path d="M38.3116 39.7813C37.8961 39.3738 37.8961 38.7131 38.3116 38.3056C38.727 37.8981 39.4006 37.8981 39.8161 38.3056L50.2979 48.5869L60.7797 38.3056C61.1951 37.8981 61.8687 37.8981 62.2842 38.3056C62.6996 38.7131 62.6996 39.3738 62.2842 39.7813L52.0655 50L62.2842 60.2187C62.6996 60.6262 62.6996 61.2869 62.2842 61.6944C61.8687 62.1019 61.1951 62.1019 60.7797 61.6944L50.2979 51.4131L39.8161 61.6944C39.4006 62.1019 38.727 62.1019 38.3116 61.6944C37.8961 61.2869 37.8961 60.6262 38.3116 60.2187L48.5303 50L38.3116 39.7813Z" fill="white"/>
</svg>
